<svg width="453" height="428" viewBox="0 0 453 428" fill="none" xmlns="http://www.w3.org/2000/svg">
<path d="M181.156 427.863C134.92 427.863 96.9171 399.087 86.1172 351.876C83.8113 342.191 84.7006 332.022 88.6528 322.881C102.239 290.575 93.6615 263.923 70.34 239.177C49.0661 216.288 30.6503 190.909 15.4954 163.596C-10.6747 117.23 -3.72522 73.987 36.4378 39.0555C84.8964 -3.12466 154.485 -14.3415 210.488 25.9016C219.691 32.4942 225.483 41.5239 232.682 49.7412C258.884 79.2049 273.597 81.9231 310.786 68.9879C350.667 55.1465 389.046 61.3017 422.917 86.6098C454.221 110.075 456.224 143.6 450.433 178.406C443.045 222.618 421.414 260.705 394.086 295.167C359.651 338.535 320.741 377.435 271.28 404.055C244.922 418.49 217.344 428.613 181.156 427.863Z" fill="#205B5B"/>
<path d="M282.268 65.4265C275.499 65.8774 268.719 64.7322 262.476 62.0834C256.233 59.4346 250.703 55.3566 246.331 50.1791C235.437 38.0875 238.192 23.34 253.281 16.6849C266.866 10.7172 298.546 17.7472 308.313 29.1828C313.791 35.4317 319.645 42.6492 316.014 51.3664C312.382 60.0837 303.492 63.0207 294.727 64.8641C290.596 65.3821 286.429 65.5701 282.268 65.4265Z" fill="#205B5B"/>
</svg>
