<svg width="124" height="132" viewBox="0 0 124 132" fill="none" xmlns="http://www.w3.org/2000/svg">
<path fill-rule="evenodd" clip-rule="evenodd" d="M92.971 3.81342C83.7871 0.0210443 73.6817 -0.970684 63.9328 0.963571C54.1837 2.89783 45.2286 7.67128 38.1999 14.6807C31.7335 21.1294 27.1649 29.2043 24.966 38.0259C21.2468 40.1856 17.8015 42.8241 14.7251 45.8909C7.69506 52.8989 2.90687 61.8285 0.966578 71.5506C-0.973719 81.2727 0.0211389 91.3501 3.82521 100.508C7.62926 109.666 14.0715 117.494 22.3367 123C30.6019 128.507 40.319 131.446 50.2591 131.446H50.2598C63.5832 131.435 76.3586 126.154 85.7815 116.761C92.2985 110.265 96.8435 102.168 99.0314 93.3969C102.736 91.2426 106.18 88.607 109.265 85.531C118.685 76.1369 123.984 63.4007 124 50.1155V50.1143C124 40.2016 121.052 30.5117 115.528 22.2702C110.005 14.0287 102.155 7.6058 92.971 3.81342ZM100.052 88.1038C104.836 84.8096 108.979 80.6296 112.241 75.7613C117.326 68.1695 120.04 59.2447 120.038 50.1156L73.75 3.96577L120.038 50.1146C120.023 37.8808 115.142 26.152 106.465 17.5005C97.7876 8.84884 86.0226 3.9811 73.75 3.96577C64.592 3.96399 55.6393 6.67014 48.0244 11.7416C40.4093 16.8132 34.4742 24.0223 30.9692 32.4567C30.5453 33.4769 30.1592 34.5095 29.8111 35.5524C33.207 34.0443 36.7772 32.909 40.4607 32.1789C50.2101 30.2466 60.3152 31.2403 69.4983 35.0345C78.6815 38.8287 86.5303 45.2531 92.052 53.4957C97.5737 61.7384 100.52 71.4289 100.518 81.3417V81.3425C100.516 83.617 100.359 85.8755 100.052 88.1038ZM28.4326 40.6344C35.1269 37.0665 42.6212 35.1831 50.2587 35.1831C62.5346 35.1959 74.3034 40.0639 82.9829 48.7179C91.6625 57.3719 96.5437 69.1051 96.5564 81.3425C96.5563 84.5469 96.2217 87.726 95.5674 90.8311C94.2361 91.5407 92.8667 92.187 91.4635 92.7667C83.0031 96.2619 73.6929 97.1769 64.7106 95.396C55.7283 93.615 47.4779 89.2182 41.0028 82.762C34.5276 76.3059 30.1185 68.0805 28.3326 59.1263C27.1088 52.99 27.1545 46.7001 28.4326 40.6344ZM23.9394 43.3674C22.7442 52.1387 23.8983 61.0892 27.3109 69.3002C31.1168 78.4576 37.5606 86.2835 45.8269 91.7886C54.0932 97.2936 63.8109 100.231 73.7509 100.229H73.7521C80.8691 100.219 87.8289 98.7058 94.2045 95.8661C92.9037 99.7784 91.0762 103.52 88.7546 106.985C83.6678 114.575 76.4373 120.492 67.9772 123.986C59.5171 127.48 50.2077 128.394 41.2264 126.613C32.245 124.832 23.9955 120.435 17.5209 113.979C11.0463 107.524 6.6374 99.2992 4.85123 90.346C3.06507 81.3927 3.98176 72.1124 7.48552 63.6784C10.8972 55.4661 16.6126 48.4152 23.9394 43.3674Z" fill="#29B4B8"/>
</svg>
