<svg width="699" height="699" viewBox="0 0 699 699" fill="none" xmlns="http://www.w3.org/2000/svg">
<path d="M698.944 335.682C698.944 335.877 698.944 336.087 698.944 336.283C698.245 336.576 697.476 336.772 696.875 337.191C689.495 342.308 682.045 347.298 673.979 351.31C673.644 351.478 673.364 351.772 672.679 352.303C678.886 351.408 684.533 349.898 690.32 349.395C690.376 349.633 690.417 349.856 690.473 350.094C681.332 352.96 672.204 355.84 663.062 358.705C670.359 357.811 677.6 356.79 684.645 359.949C679.431 360.551 674.413 361.795 669.576 363.696C664.768 365.583 659.973 367.47 655.165 369.357C655.235 369.609 655.291 369.861 655.361 370.098C661.707 369.441 668.039 368.784 674.385 368.127C666.627 373.733 657.821 376.389 648.581 378.22C652.243 378.975 655.864 379.59 659.484 379.604C663.104 379.632 666.725 379.059 670.904 378.695C668.332 380.778 665.886 381.981 663.272 382.875C655.71 385.433 647.91 385.685 640.194 384.329C632.255 382.945 624.469 380.722 616.585 378.989C611.917 377.955 607.206 377.158 602.496 376.305C601.95 376.207 601.335 376.459 600.748 376.543C600.734 376.78 600.72 377.032 600.706 377.27C611.232 380.457 621.981 382.735 632.8 384.776C643.633 386.817 654.564 387.894 665.578 388.677C655.305 392.591 644.639 393.234 633.89 392.297C623.113 391.361 612.993 388.02 603.404 382.777C602.929 385.378 604.341 386.118 606.018 386.817C623.505 394.128 641.592 397.064 660.463 394.38C661.441 394.24 662.433 394.17 663.412 394.073C663.44 394.324 663.482 394.576 663.51 394.827C659.987 395.848 656.507 397.05 652.942 397.861C649.434 398.658 646.009 399.538 642.682 400.95C638.531 402.726 634.128 403.564 629.613 403.9C621.436 404.515 613.496 403.481 605.697 400.978C604.788 400.685 603.837 399.916 602.146 400.783C614 404.851 625.545 406.682 637.594 405.48C632.241 408.779 626.272 409.953 620.122 410.4C613.846 410.862 607.639 410.135 601.489 408.737C601.447 410.89 601.419 410.945 602.677 411.533C609.624 414.804 616.823 416.97 624.609 416.551C625.322 416.509 626.035 416.551 626.747 416.551C626.37 417.264 625.965 417.516 625.531 417.697C620.835 419.682 615.914 420.102 610.868 419.934C606.997 419.808 603.125 419.906 599.071 419.906C598.316 421.681 597.589 423.373 596.779 425.26C598.54 425.554 600.007 425.805 601.475 426.057C600.189 426.77 598.931 427.133 597.659 427.245C595.507 427.427 594.207 428.461 593.564 430.95L600.818 430.95C600.818 431.145 600.846 431.341 600.846 431.523C599.49 431.998 598.148 432.459 596.429 433.06C597.505 433.801 598.274 434.347 599.071 434.878C602.104 436.891 604.788 439.281 606.521 442.524C608.995 447.151 612.112 451.233 616.124 454.63C616.222 454.714 616.18 454.98 616.222 455.259C615.439 455.259 614.656 455.329 613.888 455.259C605.305 454.379 596.709 454.463 588.224 455.944C583.038 456.853 577.838 458.041 572.876 459.761C568.669 461.214 564.727 463.479 560.799 465.646C557.906 467.24 555.39 469.42 553.894 472.496C553.111 474.117 553.433 474.956 555.194 475.305C556.326 475.529 557.584 475.487 558.73 475.305C563.413 474.509 567.117 471.797 570.863 469.113C574.581 466.443 578.3 463.689 582.325 461.55C593.634 455.553 605.599 454.211 618.011 457.594C619.185 457.915 620.499 458.586 621.212 459.509C623.421 462.319 625.573 465.227 627.404 468.302C630.046 472.733 631.584 477.556 631.234 482.826C631.151 484.112 631.234 485.398 631.234 486.698C632.087 487.328 632.87 487.901 633.541 488.39C633.583 488.684 633.625 488.781 633.611 488.879C633.527 489.369 633.457 489.858 633.345 490.347C632.129 496.106 631.933 501.88 634.058 507.444C636.546 513.944 636.322 520.276 633.974 526.707C633.527 527.937 633.331 529.279 633.01 530.607C632.744 530.649 632.367 530.831 632.171 530.719C628.327 528.384 624.385 528.86 620.933 531.11C617.634 533.277 614.768 536.129 611.861 538.841C609.82 540.742 608.073 542.951 606.102 544.922C604.62 546.403 603.041 547.759 600.706 547.801C600.105 547.801 599.462 548.347 598.917 548.738C592.18 553.519 584.729 555.238 576.524 554.386C573.086 554.036 569.577 554.316 566.097 554.288C565.524 554.288 564.853 554.386 564.391 554.12C562.798 553.225 561.107 553.309 559.429 553.505C556.662 553.84 553.88 554.19 551.154 554.791C544.431 556.259 537.735 557.713 530.369 555.784C531.305 556.958 531.879 557.755 532.549 558.482C539.734 566.226 546.807 574.11 554.187 581.673C563.05 590.759 572.513 599.189 584.059 604.892C584.464 605.088 584.799 605.396 585.428 605.829C582.283 606.108 579.502 606.15 576.818 606.654C570.612 607.828 564.461 607.059 558.325 606.402C555.697 606.122 553.167 605.004 550.581 604.277C549.826 604.068 549.058 603.83 548.289 603.676C545.549 603.145 542.795 602.726 540.07 602.11C535.792 601.132 531.599 599.706 527.294 599.021C521.94 598.154 516.768 596.798 511.778 594.715C508.563 593.373 505.362 592.018 502.203 590.676C501.672 592.395 501.448 594.156 500.624 595.568C498.751 598.714 498.052 602.222 496.891 605.605C495.298 610.274 493.215 614.79 491.328 619.361C491.258 619.542 491.119 619.696 491.021 619.878C487.191 625.917 481.655 630.292 475.994 635.269C476.456 631.215 474.289 628.769 472.262 626.113C470.277 623.527 468.81 620.563 467.132 617.739C465.665 615.265 464.267 612.749 462.799 610.274C462.086 609.072 461.136 608.01 460.535 606.766C457.823 601.118 455.195 595.414 452.539 589.739C452.19 588.984 451.798 588.243 451.239 587.111C451.057 587.88 450.946 588.145 450.946 588.397C450.974 594.226 449.911 599.874 448.248 605.452C447.954 606.458 448.206 607.646 448.206 608.513C447.507 608.834 446.878 609.142 446.095 609.505C446.752 606.891 445.033 605.815 443.132 604.459C443.062 606.081 443.02 607.367 442.936 608.653C442.852 609.953 442.782 611.239 442.629 612.525C442.489 613.671 442.741 614.915 441.79 616.607C441.161 612.679 440.588 609.45 440.127 606.22C439.386 601.048 437.974 596.239 435.067 591.738C430.58 584.776 427.225 577.186 424.401 569.385C424.178 568.77 423.884 568.169 423.507 567.302C422.542 568.071 421.801 568.672 421.047 569.287C421.662 572.405 422.962 575.089 424.555 577.605C426.624 580.89 428.93 584.035 430.943 587.362C442.517 606.612 442.964 626.099 432.033 645.767C431.418 646.858 430.566 647.822 429.825 648.857C429.685 647.752 429.993 646.914 430.272 646.089C433.026 637.869 434.228 629.44 433.878 620.787C433.417 609.366 430.412 598.616 425.324 588.383C423.479 584.651 422.081 580.68 420.613 576.766C420.082 575.368 419.928 573.845 419.565 572.153C417.776 574.418 417.678 576.403 418.796 578.751C420.585 582.526 422.123 586.426 423.674 590.312C427.449 599.776 430.594 609.408 431.488 619.654C432.229 628.21 432.005 636.569 427.63 644.314C426.987 645.446 426.316 646.564 425.659 647.697C426.582 641.308 426.917 635.115 426.554 628.797C426.26 623.764 423.101 620.451 420.753 616.593C420.711 617.446 420.851 618.228 421.047 618.983C423.018 626.448 423.227 634.011 421.41 641.476C420.04 647.067 418.153 652.547 416.21 657.971C415.413 660.18 413.918 662.137 412.646 664.15C412.282 664.723 411.653 665.115 411.15 665.604C414.743 656.154 414.03 646.788 411.611 637.338C411.122 649.919 408.466 661.662 398.933 671.503C399.059 670.608 399.031 670.301 399.143 670.063C403.742 660.138 404.958 649.584 404.581 638.848C404.245 629.09 403.448 619.347 402.833 609.603C402.819 609.296 402.568 609.016 402.372 608.611C399.763 612.143 398.971 615.782 399.996 619.529C400.122 620.004 400.275 620.493 400.401 620.968C403.141 631.565 404.79 642.259 402.973 653.204C401.729 660.697 399.087 667.659 394.181 673.544C392.126 676.004 390.267 678.535 388.701 681.33C387.22 683.986 385.445 686.433 383.152 688.502C383.236 687.775 383.502 687.16 383.795 686.573C389.736 674.564 392.615 661.829 392.476 648.465C392.406 641.895 391.777 635.339 391.427 628.769C391.357 627.567 391.427 626.35 391.427 624.743C390.77 625.344 390.463 625.581 390.211 625.861C389.302 626.91 388.408 627.986 387.471 629.104C390.798 639.253 391.735 649.556 390.029 660.082C388.338 670.552 384.62 680.156 378.05 688.628C380.371 679.261 382.244 669.84 383.613 660.306C385.221 649.15 386.269 633.633 385.221 631.257C384.145 635.339 383.53 639.239 383.264 643.209C382.873 649.08 382.565 654.952 382.076 660.809C381.531 667.295 380.133 673.6 377.309 679.527C375.618 683.064 373.493 686.307 370.362 688.767C369.887 689.145 369.3 689.368 368.419 689.858C372.529 681.205 374.066 676.046 373.843 671.95C371.76 675.166 369.803 678.507 367.525 681.624C364.212 686.181 361.277 688.767 359.096 689.55C361.29 684.588 363.499 679.625 365.694 674.662C363.807 676.046 362.437 677.724 361.039 679.373C359.627 681.051 358.145 682.686 356.804 684.406C355.392 686.209 354.008 688.054 352.778 689.983C351.646 691.759 350.737 693.66 349.717 695.505L348.99 695.254C349.451 692.654 349.717 689.997 350.416 687.467C351.128 684.895 352.275 682.449 353.239 679.946C348.668 685.678 344.573 691.661 340.016 697.281C339.848 697.169 339.68 697.057 339.513 696.945C341.567 693.045 343.622 689.159 345.663 685.259C345.495 685.133 345.328 685.007 345.174 684.881C343.72 686.167 342.294 687.481 340.827 688.753C339.387 689.997 337.947 691.214 336.465 692.402C334.914 693.646 333.348 694.89 331.727 696.05C330.217 697.127 328.861 698.483 326.974 699C328.54 696.61 330.259 694.415 332.034 692.262C333.754 690.193 335.571 688.194 337.276 686.111C338.968 684.056 341.05 682.295 342.197 679.821C336.228 684.35 330.175 688.725 325.465 694.639C327.058 690.165 329.756 686.489 333.055 683.274C336.298 680.114 339.666 677.081 342.979 673.991C332.677 681.121 321.844 687.062 309.544 690.039C321.187 683.078 332.412 675.557 343.203 667.365C341.749 667.813 340.421 668.47 339.121 669.155C330.091 673.977 320.223 675.235 310.229 676.004C303.673 676.508 297.131 676.969 290.17 677.486C291.47 676.871 292.421 676.34 293.413 675.962C297.047 674.578 300.71 673.264 304.33 671.839C305.113 671.531 306.077 671.098 306.441 670.441C308.062 667.533 309.502 664.513 311.095 661.368C306.986 659.551 302.695 657.594 300.626 652.883C301.101 652.771 301.464 652.869 301.772 653.023C306.119 655.231 310.774 656.196 315.596 656.559C316.281 656.615 317.078 656.741 317.651 656.461C320.922 654.84 324.123 653.092 327.352 651.401C324.724 649.877 321.942 648.577 319.524 646.774C315.932 644.104 312.605 641.07 309.152 638.205C306.86 636.304 304.554 634.43 302.275 632.557C300.71 633.815 299.326 634.794 298.11 635.954C296.894 637.114 295.622 638.303 294.741 639.714C292.882 642.678 290.268 644.705 287.5 646.718C281.043 651.401 273.299 653.218 266.324 656.685C266.533 654.267 267.148 651.876 266.841 649.598C266.519 647.179 265.163 644.915 264.576 642.51C263.822 639.337 263.332 636.08 262.829 632.851C262.592 631.383 262.731 629.845 262.424 628.391C261.697 624.994 260.523 621.667 260.006 618.242C258.817 610.162 257.518 602.097 257.476 593.891C257.462 588.956 257.238 584.035 257.112 578.919C254.959 579.408 253.058 578.57 251.325 579.912C246.153 583.896 240.352 586.803 234.286 589.152C228.667 591.319 223.467 594.184 218.323 597.288C214.94 599.329 211.278 601.034 207.588 602.46C203.129 604.179 198.53 604.739 193.889 602.684C192.562 602.097 190.982 601.971 189.5 601.845C186.523 601.593 183.518 601.593 180.54 601.3C178.486 601.09 176.389 600.755 174.446 600.098C172.042 599.287 169.666 598.867 167.135 598.77C164.969 598.686 162.635 598.532 160.72 597.637C155.408 595.163 150.11 592.549 145.106 589.501C140.927 586.943 137.572 583.127 132.33 581.086C133.826 580.429 134.678 579.898 135.615 579.66C138.005 579.031 139.641 577.577 140.745 575.438C141.108 574.725 141.57 574.068 141.947 573.369C144.519 568.449 147.86 564.185 152.193 560.634C154.108 559.069 155.967 557.265 157.295 555.21C159.811 551.338 162.453 547.648 165.808 544.446C166.367 543.915 166.646 543.077 167.052 542.392C166.87 542.252 166.674 542.098 166.492 541.958C165.766 542.559 165.053 543.16 164.326 543.761C160.342 547.075 155.981 549.563 150.655 549.884C144.225 550.262 137.991 548.766 131.044 547.983C132.176 547.382 132.749 547.047 133.351 546.767C141.779 542.755 147.832 536.339 152.249 528.231C152.948 526.959 152.976 525.924 152.431 524.61C151.564 522.499 150.949 520.29 150.194 518.138C150.026 517.662 149.719 517.243 149.285 516.446C148.293 522.443 147.706 528.049 145.693 534.032C145.511 532.97 145.47 532.592 145.386 532.215C145.288 531.795 145.162 531.376 145.036 530.957C144.701 531.054 144.575 531.054 144.533 531.11C144.295 531.418 144.044 531.725 143.848 532.075C139.92 538.925 134.245 543.971 127.536 547.983C126.04 548.878 124.558 549.311 122.741 549.171C120.77 549.032 118.757 549.297 116.787 549.563C112.328 550.164 107.883 550.919 103.41 549.773C100.181 548.948 96.9936 548.039 94.24 545.733C94.7013 545.425 94.9109 545.201 95.1765 545.117C105.772 541.707 115.067 535.961 123.678 529.041C128.067 525.519 131.911 521.479 134.804 516.628C135.447 515.566 135.95 514.419 136.524 513.301C136.37 513.203 136.202 513.105 136.048 513.007C133.994 515.482 131.953 517.956 129.898 520.43C129.716 520.318 129.535 520.207 129.353 520.095C131.589 515.705 133.826 511.302 136.048 506.912C135.922 506.815 135.783 506.703 135.657 506.605C133.868 508.031 132.079 509.443 130.275 510.869C130.164 510.729 130.052 510.589 129.926 510.463C131.212 508.911 132.498 507.346 133.896 505.654C131.869 505.081 130.583 505.976 129.688 507.136C128.235 509.009 126.823 510.98 125.76 513.105C124.293 516.041 123.119 519.13 121.889 522.164C119.736 527.476 116.367 531.809 111.768 535.234C106.037 539.512 99.5656 542.364 92.9261 544.866C91.4304 545.425 90.1304 544.978 89.0262 544.055C87.1112 542.461 85.336 540.7 83.449 539.092C80.5694 536.646 77.704 534.172 74.6987 531.879C71.6934 529.601 68.1849 529.657 64.6625 530.23C64.0055 530.342 63.3485 530.495 62.6216 530.649C59.9518 525.001 58.0228 519.312 59.868 513.217C61.8109 506.787 61.6991 500.468 59.7562 493.954C61.3497 493.003 61.3496 491.591 61.1399 489.9C60.7486 486.741 60.6927 483.567 61.5593 480.408C62.9571 475.306 65.7107 470.944 68.6881 466.694C68.9956 466.261 69.5547 465.912 70.0719 465.73C80.0942 462.277 90.1304 461.788 100.278 465.31C105.716 467.198 110.524 470.119 115.319 473.209C118.059 474.97 121.064 476.382 124.111 477.556C125.705 478.171 127.661 478.143 129.409 477.976C131.841 477.738 132.526 476.242 131.184 474.257C130.247 472.873 129.059 471.601 127.773 470.553C124.586 467.939 120.882 466.205 116.996 464.821C107.952 461.578 98.5871 460.362 89.0401 460.655C84.2736 460.795 79.5071 461.27 74.7126 461.606C74.7965 461.396 74.8245 461.061 75.0062 460.879C77.8717 458.013 79.8985 454.602 81.6318 450.982C83.6446 446.774 86.9574 443.824 90.9411 441.56C91.8777 441.029 92.8422 440.581 94.3099 439.826C89.5014 437.436 87.167 433.158 84.1199 429.51C82.2887 427.315 79.9823 425.512 77.8717 423.541C77.3405 423.051 76.7814 422.59 75.8868 421.821C76.9911 421.751 77.5641 421.723 78.1373 421.668C84.5951 421.108 91.0949 420.871 97.4969 419.934C107.757 418.424 117.416 415.027 126.278 409.534C129.157 407.744 131.827 405.689 133.952 403.047C131.589 401.524 129.325 400.07 126.879 398.49C125.509 399.511 124.027 400.503 122.671 401.663C120.7 403.341 118.869 405.186 116.912 406.892C105.185 417.068 91.7798 422.059 76.0824 420.06C73.5245 419.738 71.288 419.123 69.6526 416.859C68.3246 414.999 66.5914 413.434 65.1936 411.63C61.6432 407.059 59.0852 402.055 58.8336 396.128C58.7776 394.744 58.568 393.374 58.4282 391.99C57.5057 391.445 56.667 390.955 55.9681 390.536C55.8702 390.228 55.8003 390.131 55.8143 390.047C57.1142 381.967 55.4509 374.404 51.8305 367.177C51.537 366.59 51.0478 366.03 50.5166 365.611C45.4845 361.543 42.5632 356.161 41.2073 349.982C40.3127 345.914 40.0191 341.721 39.46 337.653C37.7128 344.419 37.587 351.268 40.089 358.132C35.5182 355.49 34.1344 350.989 32.6806 346.418C31.7301 352.219 31.5764 358.076 28.6969 363.346C27.7743 354.61 25.7475 345.984 27.1454 337.094C23.3993 344.475 19.5553 351.66 14.5232 358.174C15.5296 352.471 16.55 346.781 17.6543 340.56C13.7823 344.111 10.19 347.159 5.07402 347.284C11.2104 344.279 14.9146 338.981 18.4371 333.487C20.38 330.467 22.3229 327.462 24.2519 324.428C24.4476 324.107 24.5174 323.716 24.6573 323.352C18.3671 328.301 12.6641 333.878 4.76652 336.115C10.4695 332.243 15.1103 327.252 19.9047 322.415C13.2372 326.441 6.989 331.069 -1.80442e-05 334.549C4.75255 328.958 10.0223 323.925 15.4457 318.935C11.42 320.472 7.39439 322.01 3.35472 323.548C3.27086 323.352 3.18699 323.156 3.10313 322.947C8.91801 319.718 14.7329 316.474 20.5477 313.245C15.8371 314.182 11.2243 315.524 5.92668 314.503C8.80613 313.245 11.3082 312.323 13.6565 311.092C16.1167 309.792 18.451 308.241 20.8133 306.745C22.9939 305.375 25.1325 303.949 27.2851 302.537L27.0195 302.006C22.3229 303.46 17.6123 304.9 12.9157 306.353C20.3241 298.735 29.4518 294.625 39.7116 292.696C36.315 292.123 32.9742 291.48 29.6335 291.508C26.9357 291.522 24.2519 292.36 21.2326 292.891C22.2251 291.955 22.9939 291.228 23.8605 290.417C22.5885 289.788 21.4703 289.243 19.9327 288.474C20.8832 287.454 21.5122 286.601 22.3089 285.958C27.9421 281.471 34.3301 278.535 41.361 276.997C42.7169 276.704 44.0727 276.438 45.4147 276.158C40.746 275.459 36.3149 276.857 31.5345 277.696C31.8839 277.095 31.9399 276.885 32.0796 276.774C32.471 276.466 32.8764 276.172 33.2957 275.907C39.6137 271.825 46.6448 270.217 54.0391 270.022C61.6012 269.826 68.9257 271.364 76.0405 273.796C79.2415 274.886 82.3726 276.186 85.5456 277.403C87.5864 278.171 89.0262 277.584 89.9487 275.571C90.9691 275.949 91.9755 276.284 93.1636 274.691C81.7436 272.859 70.7988 270.804 59.7561 269.434C52.0123 268.484 44.1985 269.043 36.6784 271.573C36.3708 271.671 36.0074 271.573 35.0709 271.573C45.0792 264.178 55.9541 262.85 67.3881 263.619C59.1411 260.39 50.7962 259.006 42.0599 261.243C45.0093 258.531 48.5597 257.356 52.3058 256.63C54.8498 256.14 57.3938 255.651 59.9239 255.12C65.8506 253.89 71.8052 253.638 77.7599 254.77C80.4436 255.274 83.0715 255.987 85.8671 256.644C84.3435 253.302 82.0232 251.681 78.5147 251.094C73.3708 250.241 68.2548 249.598 63.041 250.003C62.3001 250.059 61.5593 250.003 60.1335 250.003C63.3904 248.018 66.3677 247.347 69.387 246.942C72.3224 246.551 75.2997 246.383 78.5147 246.103C76.5578 244.174 74.489 244.076 72.3783 244.342C68.2408 244.845 64.1173 245.404 59.4207 246.019C64.6065 242.748 69.9601 241.448 75.6911 240.078C74.9083 238.89 74.3772 237.967 73.7342 237.129C72.2804 235.227 70.7709 233.368 69.2892 231.495C66.8011 228.336 64.8302 224.883 63.6001 221.053C62.8872 218.858 62.3281 216.607 62.985 214.301C63.9496 210.876 63.9496 207.423 63.5302 203.928C63.1668 200.839 63.0969 197.791 64.0474 194.758C64.4527 193.472 64.5785 191.976 64.3968 190.634C63.8657 186.734 64.9839 183.211 66.0882 179.548C68.3387 172.126 73.3148 166.17 76.3341 159.195C76.5577 159.279 76.6835 159.279 76.7394 159.349C76.9352 159.572 77.1728 159.782 77.2706 160.048C78.3469 163.333 80.9468 164.8 83.9661 165.877C88.3412 167.457 92.2551 169.791 95.5399 173.118C98.7129 176.333 102.864 177.871 106.778 179.814C105.716 176.11 104.486 172.643 103.773 169.064C103.06 165.499 103.493 161.907 105.073 158.076C105.492 158.678 105.66 158.915 105.828 159.167C111.447 167.708 118.771 174.558 126.991 180.499C131.38 183.672 136.104 186.286 141.43 187.503C143.331 187.936 145.372 187.95 147.343 187.88C148.894 187.824 149.789 186.664 150.18 185.196C150.557 183.742 150.362 182.316 149.104 181.408C147.986 180.611 146.741 179.814 145.442 179.493C142.45 178.738 139.417 178.039 136.37 177.731C129.702 177.046 123.44 175.48 118.1 171.105C113.194 167.079 109.21 162.256 105.506 157.154C104.723 156.077 104.486 154.987 105.045 153.799C106.107 151.548 107.254 149.34 108.302 147.089C109.77 143.93 111.279 140.798 112.579 137.569C113.725 134.731 113.18 131.879 111.964 129.154C111.601 128.343 111.153 127.574 110.72 126.735C115.431 122.458 120.658 119.704 127.172 119.941C128.458 119.983 129.786 119.941 131.044 119.718C135.559 118.865 140.088 117.984 142.828 113.609C143.345 112.784 144.17 112.127 144.896 111.456C149.327 107.402 154.625 104.928 160.286 103.096C160.761 102.943 161.251 102.817 161.712 102.649C162.159 102.495 162.579 102.286 163.012 102.104C155.911 102.342 149.174 103.712 142.87 108.562C143.694 105.445 145.05 103.516 146.895 102.006C148.726 100.496 150.767 99.2102 153.185 97.4907C146.853 98.3295 141.136 99.6855 135.252 98.3715C143.624 95.0724 151.634 90.7948 160.859 90.0958C152.584 88.2785 144.323 86.6988 136.551 83.3718C142.269 82.8546 147.986 82.3513 154.178 81.7922C150.292 78.9405 146.28 76.7177 144.785 72.0068C147.301 73.7682 149.439 75.5995 151.871 76.8995C158.567 80.5061 166.101 81.8202 173.286 84.2246C166.478 79.2899 159.112 75.0542 154.653 67.5894C156.61 68.9034 158.385 70.4411 160.272 71.825C162.117 73.167 164.074 74.3833 166.031 75.5854C167.96 76.7736 169.931 77.892 171.874 79.0383C166.437 73.5864 160.58 68.7357 155.394 63.144C162.075 66.2054 168.296 70.0077 174.628 73.8939C172.112 70.469 169.61 67.0581 167.094 63.6333C167.275 63.4934 167.457 63.3537 167.625 63.2139L182.106 78.0178C178.625 72.1605 176.179 67.3936 176.752 64.3602C179.296 67.184 181.826 70.2454 184.622 73.0272C187.46 75.851 190.549 78.4092 193.54 81.0792C193.694 80.9534 193.861 80.8277 194.015 80.7018C191.401 76.564 188.801 72.4401 186.188 68.3023C195.762 73.6702 202.29 81.6524 206.693 91.4798C206.274 88.2645 205.505 85.1472 205.254 82.0018C204.988 78.591 202.584 76.1725 201.298 72.8035C202.612 73.5444 203.52 74.0477 204.569 74.6488C204.694 73.4326 204.792 72.468 204.904 71.4895C205.477 72.0487 205.785 72.6358 205.897 73.2789C206.316 75.8091 207.49 77.8501 209.279 79.7512C213.333 84.0847 216.324 89.1312 218.533 94.653C220.629 99.9091 221.594 105.361 221.748 110.981C221.79 112.295 221.72 113.595 223.579 114.028C222.67 97.6865 217.009 83.3438 206.358 70.9304C214.2 75.7532 219.539 82.6589 223.719 90.655C223.215 88.5161 222.475 86.4891 221.594 84.5321C220.699 82.575 219.665 80.6738 218.686 78.7447C220.322 79.4996 221.538 80.52 222.642 81.6384C223.76 82.7567 224.795 83.9729 225.871 85.1611C226.151 83.917 226.011 82.9524 225.899 81.9739C225.857 81.6244 225.703 81.1631 225.871 80.9115C227.423 78.4512 227.003 75.7113 227.003 73.0552C227.003 70.5669 226.332 68.0366 226.64 65.6043C227.325 60.3761 227.115 55.064 227.828 49.9057C228.611 44.2162 230.987 38.8202 233.95 33.8017C235.796 30.6843 237.613 27.539 239.472 24.3657C239.402 24.3378 239.528 24.3378 239.57 24.4077C239.751 24.6314 240.003 24.8551 240.073 25.1207C241.121 29.0348 244.126 31.0897 247.397 32.935C251.353 35.1577 254.652 38.1492 257.657 41.5461C259.628 43.7689 261.962 45.67 264.213 47.6131C266.631 49.682 269.287 51.4993 271.607 53.6661C278.457 60.0825 284.845 66.9463 290.534 74.4251C290.967 74.9983 291.582 75.4316 292.267 76.0747C292.812 74.8445 293.217 73.9498 293.595 73.0412C293.986 72.1046 294.35 71.168 294.979 69.6024C296.866 82.8266 302.625 93.4228 310.704 103.096C311.878 102.272 312.801 101.615 314.003 100.776C313.36 100.273 312.94 99.993 312.577 99.6575C304.498 92.2206 299.899 82.8826 297.816 72.2304C297.243 69.2668 297.229 66.2753 298.585 63.4375C300.724 59.0061 303.142 54.7564 306.986 51.5692C308.342 50.4509 309.027 49.2626 308.817 47.5013C308.439 44.356 309.642 41.6719 311.319 39.0998C314.436 34.3049 318.49 30.5725 323.717 28.1681C324.277 27.9164 324.878 27.7627 325.507 27.5391C325.563 28.0143 325.618 28.21 325.591 28.4058C323.48 41.7838 326.066 54.1833 333.684 65.4086C335.124 67.5334 337.011 69.3787 338.856 71.168C339.722 72.0068 341.008 72.4122 342.168 73.0552C343.231 69.4066 343.273 69.3787 342.364 66.7785C341.735 65.0032 341.106 63.1858 340.198 61.5363C337.682 56.8953 335.068 52.3101 332.412 47.7529C329.882 43.4333 327.561 39.0439 326.569 34.0813C325.409 28.2659 326.527 22.9818 330.455 18.4246C331.489 17.2224 332.608 16.0621 333.782 14.9998C336.074 12.9308 338.464 10.9597 340.771 8.8908C342.937 6.94769 344.852 4.79498 346.026 2.06902C346.278 1.49584 346.614 0.978631 347.145 5.43111e-05C348.053 5.10247 351.045 8.27575 354.399 11.1974C355.154 11.8544 355.867 12.5814 356.692 13.1125C361.346 16.118 362.814 20.4935 362.227 25.7637C362.115 26.7562 362.101 27.7627 361.892 28.7272C360.731 33.8716 359.515 39.0019 358.341 44.1462C357.768 46.6625 357.195 49.1927 356.79 51.7509C356.636 52.7295 356.957 53.7779 357.069 54.8543C359.599 54.7704 361.095 53.6381 361.989 51.8907C362.842 50.2272 363.625 48.4379 363.974 46.6206C365.428 39.1417 365.847 31.593 364.743 24.0303C364.338 21.2065 363.681 18.4246 363.066 15.1814C365.847 16.1739 368.391 16.9288 370.823 17.9773C377.393 20.829 380.776 26.5325 380.426 33.7038C380.217 38.1492 379.001 42.329 377.477 46.4529C374.346 54.9102 369.817 62.6547 365.009 70.2454C364.324 71.3357 363.653 72.4541 363.122 73.6283C362.604 74.7886 362.632 76.0607 363.737 76.8855C364.911 77.7662 366.057 77.165 366.994 76.3682C367.888 75.5994 368.769 74.7327 369.454 73.7681C370.544 72.2304 371.606 70.6368 372.473 68.9593C379.364 55.6511 382.733 41.602 381.279 26.5465C381.223 25.9174 381.279 25.2884 381.279 24.6034C391.217 26.7143 398.22 35.1017 398.78 45.3625C399.241 53.7919 397.046 61.5922 392.531 68.6517C390.225 72.2444 387.499 75.5854 384.774 78.8985C382.369 81.8341 379.728 84.56 377.211 87.3838C376.582 88.0967 375.59 88.7118 376.247 89.928C373.815 89.7463 373.451 91.9969 372.109 93.2551C373.102 95.6735 374.038 97.9939 375.003 100.328C377.002 99.2661 377.365 97.7983 377.044 95.953C376.68 93.94 376.443 91.8851 376.163 89.8581C377.435 91.5217 378.707 93.1712 380.035 94.9186C380.58 94.2056 381.083 93.5906 381.545 92.9475C388.673 82.9803 393.957 72.0627 398.109 60.5857C399.087 57.8877 399.618 55.008 400.149 52.1843C400.583 49.8916 400.709 47.5432 400.988 45.013C401.379 45.3485 401.659 45.4743 401.785 45.6979C404.357 50.339 407.502 54.5607 410.913 58.6147C413.331 61.4804 414.617 64.9333 415.092 68.6936C415.791 74.1875 414.631 79.3737 412.604 84.4202C411.472 87.244 411.486 90.0957 412.282 93.1013C413.219 91.927 413.96 90.6969 414.491 89.3688C415.274 87.4257 415.693 85.3288 416.644 83.4836C417.943 80.9814 418.475 78.4791 417.999 75.7252C417.985 75.6134 418.209 75.4736 418.363 75.2779C418.922 75.7671 419.467 76.2704 420.082 76.8156C421.969 74.6907 423.423 72.3143 426.372 70.4551C425.31 72.7057 424.513 74.2713 423.8 75.8929C422.305 79.248 422.319 79.2479 422.71 81.205C423.199 80.2265 423.535 79.4157 423.982 78.6748C425.631 75.9488 426.973 72.9433 429.07 70.6228C432.285 67.0721 435.22 63.3396 438.142 59.5513C438.966 58.4889 439.987 57.5802 440.923 56.6017C441.119 57.2727 440.965 57.6361 440.77 57.9577C432.956 71.0841 429.629 85.3429 429.979 100.538C430.048 103.53 429.909 106.521 429.853 109.513C429.853 110.226 429.783 110.939 429.727 112.183C431.139 110.631 432.131 109.541 433.207 108.353C429.126 89.229 433.277 71.9089 445.9 56.6436C440.169 72.8315 436.912 89.5226 435.248 106.591C435.905 105.683 436.339 104.704 436.52 103.67C437.555 97.8962 438.617 92.1087 439.512 86.3074C440.42 80.492 441.441 74.7187 443.733 69.2528C445.41 65.2688 447.535 61.5643 450.806 58.6286C451.784 57.748 452.931 57.049 454.007 56.2662C451.435 61.089 449.254 65.8139 448.43 71.6433C458.829 58.9641 459.878 57.9297 462.841 57.3146C460.549 61.3965 458.046 65.2828 456.076 70.0776C458.396 67.8409 460.311 66.0796 462.128 64.2344C463.875 62.459 465.651 60.6836 467.216 58.7545C468.782 56.8393 470.11 54.7284 471.885 52.2262C471.745 57.7619 469.453 61.9137 467.524 66.2054C471.605 61.4944 475.687 56.7694 479.754 52.0584C479.95 52.1982 480.146 52.3241 480.327 52.4638C478.343 55.6371 476.358 58.7964 474.387 61.9696C480.132 58.0555 485.737 54.2392 491.636 50.8842C491.775 51.0659 491.929 51.2477 492.069 51.4294L476.959 66.6388C479.922 65.2408 482.606 63.5493 485.122 61.6342C487.694 59.6771 490.126 57.5103 492.614 55.4414C492.083 56.9092 491.314 58.2372 490.364 59.4534C489.441 60.6277 488.407 61.7181 487.33 62.7665C486.198 63.8848 484.996 64.9472 483.78 65.9677C482.634 66.9323 481.418 67.799 480.258 68.7495C479.139 69.6582 477.825 70.3712 476.987 71.6153C486.017 66.457 495.298 62.1654 505.67 60.6137C495.899 65.7301 486.198 70.9303 477.001 77.0113C478.049 76.9414 478.958 76.6198 479.88 76.2843C484.185 74.6628 488.589 73.2368 493.215 73.0831C502.804 72.7616 512.407 72.6917 521.996 72.51C522.024 72.7057 522.066 72.9014 522.094 73.0971C521.087 73.4605 520.095 73.8799 519.061 74.1735C516.097 75.0262 513.092 75.7951 510.129 76.6618C509.388 76.8714 508.451 77.151 508.074 77.7102C506.397 80.2265 504.887 82.8545 503.321 85.4407C509.793 89.4247 510.981 90.585 511.848 93.954C511.401 93.7583 511.051 93.6604 510.744 93.4787C507.193 91.3259 503.307 90.1097 499.226 89.5226C498.289 89.3828 497.227 89.4248 496.36 89.7463C493.579 90.7807 490.853 91.9829 487.764 93.269C493.523 95.8831 497.716 100.287 501.966 104.62C502.525 104.201 502.93 103.907 503.307 103.6C508.675 99.1682 514.616 96.0648 521.786 96.2046C523.981 96.2466 524.987 95.0444 525.728 93.3668C526.455 93.3668 527.056 93.3109 527.643 93.3668C534.339 94.0518 540.713 93.1432 546.849 90.1656C553.838 86.7687 560.939 88.572 568.026 90.1516C566.306 94.7088 566.88 98.9026 569.927 102.425C572.331 105.193 575.155 107.612 577.922 110.016C580.173 111.973 582.731 113.595 584.981 115.552C586.141 116.572 587.357 117.9 587.763 119.312C588.182 120.752 589.049 121.703 589.817 122.835C591.313 125.058 592.851 127.28 594.081 129.657C596.527 134.382 596.807 139.568 596.974 144.782C597.072 147.941 597.561 151.101 597.869 154.26C597.911 154.638 598.092 155.085 597.967 155.406C596.611 158.831 597.911 162.088 598.708 165.318C599.462 168.407 600.636 171.399 601.447 174.474C602.789 179.492 604.047 184.609 602.412 189.767C601.433 192.871 599.924 195.82 598.652 198.84C598.4 199.427 598.148 200 597.841 200.727C600.357 201.02 602.635 201.258 604.313 203.355C601.168 207.381 596.793 210.582 596.653 216.202C597.785 217.53 599.043 217.278 600.483 216.831C605.766 215.181 611.05 215.167 615.719 218.382C619.968 221.318 624.497 223.457 629.25 225.442C634.813 227.762 639.733 231.383 641.76 237.562C642.249 239.058 643.074 239.91 644.611 240.106C645.352 244.202 646.387 248.158 649.252 251.08C653.473 255.399 654.326 260.683 654.522 266.289C651.489 265.954 649.07 267.114 647.295 269.504C646.415 270.693 645.674 272.021 645.087 273.39C644.164 275.487 643.479 277.682 642.585 279.793C642.053 281.065 641.48 282.379 640.656 283.469C639.342 285.189 637.846 286.783 636.336 288.348C635.442 289.271 635.316 290.11 635.819 291.298C637.231 294.597 638.559 297.924 639.887 301.251C642.151 306.913 644.08 312.658 644.066 318.879C644.066 319.144 644.234 319.396 644.36 319.759C644.695 319.592 644.975 319.508 645.157 319.326C647.938 316.614 650.734 313.916 653.446 311.148C654.033 310.547 654.508 309.708 654.745 308.898C656.353 303.516 657.331 298.05 656.563 292.388C656.479 291.745 656.563 291.074 656.563 290.333C659.903 292.696 660.77 295.1 662.154 305.682C663.02 305.417 663.831 305.081 664.684 304.899C667.41 304.34 670.121 303.613 672.875 303.376C674.455 303.236 675.391 302.719 676.342 301.558C679.487 297.7 682.744 293.912 685.972 290.124C686.35 289.676 686.881 289.355 687.342 288.977C684.155 296.973 680.661 304.662 677.25 312.392C672.274 323.66 665.704 333.78 656.283 341.888C656.129 342.014 656.087 342.28 656.004 342.489C662.685 338.184 669.087 333.627 675.307 328.86C681.583 324.037 687.692 318.99 693.884 314.042C693.66 315.3 693.045 316.251 692.36 317.159C686.042 325.463 678.676 332.732 670.345 339.023C667.34 341.301 664.251 343.468 661.203 345.677C660.295 346.152 659.372 346.613 658.464 347.089L658.813 347.634C659.666 347.047 660.518 346.446 661.357 345.858C663.454 344.74 665.565 343.664 667.633 342.489C673.336 339.232 679.053 335.961 685.413 334.158C688.055 333.403 690.795 332.956 693.479 332.369C693.563 332.592 693.632 332.816 693.716 333.04C684.519 335.961 676.831 341.539 668.905 346.739C669.898 346.613 670.806 346.306 671.701 345.942C677.418 343.622 683.093 341.217 688.852 338.995C692.179 337.709 695.617 336.716 699 335.584L698.944 335.682ZM347.914 595.932C347.424 595.624 346.935 595.317 346.138 594.827C346.39 595.75 346.53 596.393 346.725 597.008C346.907 597.567 347.061 598.196 347.41 598.644C347.732 599.049 348.291 599.245 348.752 599.538C348.99 599.063 349.227 598.588 349.465 598.112C350.933 598.909 352.191 600.279 354.553 599.818C352.652 599.091 351.52 597.427 349.521 598.168C349.102 597.581 348.682 596.994 348.263 596.407C350.052 596.561 351.827 596.715 353.617 596.868C352.121 595.974 350.555 595.442 348.962 594.995C348.221 594.785 347.858 595.177 347.9 595.946L347.914 595.932ZM194.435 101.125L195.595 101.125C194.63 98.0919 191.513 93.6605 189.011 91.8712C189.962 95.3799 190.577 98.7769 194.099 100.538C194.309 100.65 194.393 101 194.532 101.251C191.541 99.1823 188.438 100.119 185.335 100.874C188.69 101.573 192.044 102.258 195.609 102.999C195.133 102.244 194.77 101.699 194.421 101.139L194.435 101.125ZM45.4706 308.115C44.8136 310.771 44.1706 313.441 43.5137 316.097C43.6394 316.139 43.7792 316.181 43.905 316.223C45.5265 313.035 47.1619 309.848 48.8952 306.437L47.5813 306.437C47.3856 305.375 46.6307 305.571 45.9737 305.78C43.7093 306.521 41.4449 307.276 39.1944 308.101C38.1601 308.478 37.1676 309.009 36.1612 309.485C39.488 309.764 42.7169 310.24 45.4426 308.129L45.4706 308.115ZM341.945 574.921C342.141 575.284 342.294 575.914 342.56 575.955C344.084 576.235 344.545 575.788 345.272 573.523C343.51 572.587 342.909 574.278 341.875 575.005C341.917 574.432 341.959 573.873 342.015 573.258C339.401 572.754 336.871 571.971 334.313 571.874C331.601 571.776 329.924 569.106 327.226 569.399C328.428 573.02 330.944 574.865 334.76 574.991C335.543 575.019 336.34 575.215 337.108 575.438C338.394 575.816 339.177 575.368 339.429 573.817C340.044 574.586 340.449 575.103 340.869 575.634C341.288 575.368 341.609 575.159 341.945 574.935L341.945 574.921ZM494.068 104.788C496.151 106.983 496.57 107.29 498.345 107.584C496.933 106.619 495.913 105.109 494.04 104.83C493.76 104.466 493.551 103.991 493.187 103.739C488.533 100.342 483.347 98.1198 477.686 97.0154C467.887 95.1003 458.214 96.4004 448.555 98.0639C447.591 98.2316 446.724 98.9585 445.816 99.4338C446.487 99.8812 446.962 99.8532 447.437 99.7833C451.575 99.1543 455.698 98.3294 459.85 97.924C471.521 96.7917 482.76 98.1058 492.978 104.48C493.285 104.676 493.704 104.704 494.082 104.802L494.068 104.788ZM596.136 162.326C595.898 162.228 595.674 162.116 595.437 162.019C595.115 162.606 594.766 163.193 594.458 163.808C588.993 174.474 580.634 181.939 569.451 186.244C566.852 187.251 564.21 188.146 561.61 189.166C559.946 189.823 558.297 190.55 556.731 191.389C555.585 192.018 554.481 192.954 554.886 194.464C555.306 196.002 556.829 196.198 558.073 196.142C559.946 196.058 561.889 195.862 563.665 195.303C577.489 190.899 587.721 182.302 593.787 169.022C594.766 166.883 595.353 164.577 596.122 162.34L596.136 162.326ZM558.353 551.688C558.409 551.562 558.479 551.422 558.535 551.296C557.934 550.849 557.36 550.36 556.717 549.954C546.807 543.622 540.251 534.787 537.008 523.52C536.016 520.081 535.191 516.6 534.185 513.161C533.793 511.833 533.22 510.547 532.591 509.317C532.06 508.296 531.082 507.416 529.95 507.933C529.195 508.268 528.384 509.317 528.3 510.114C528.09 512.169 527.895 514.349 528.342 516.334C531.934 532.117 540.587 543.971 555.613 550.751C556.48 551.142 557.43 551.366 558.353 551.674L558.353 551.688ZM581.836 141.455C577.978 149.745 571.45 155.197 563.623 159.446C560.925 160.914 558.423 162.787 555.991 164.661C554.677 165.667 553.503 166.981 552.538 168.337C551.182 170.238 551.322 171.692 552.622 173.244C553.964 174.837 555.32 175.355 557.416 174.334C559.709 173.216 562.015 171.888 563.93 170.21C572.778 162.438 577.671 152.163 581.85 141.469L581.836 141.455ZM579.781 539.414C573.156 534.065 567.877 527.378 563.944 519.354C562.532 516.502 560.925 513.748 559.206 511.078C558.367 509.778 557.137 508.66 555.921 507.653C554.565 506.535 553.013 506.465 551.49 507.486C550.008 508.478 549.323 509.82 549.714 511.567C549.952 512.63 550.176 513.748 550.721 514.671C551.965 516.81 553.209 519.004 554.775 520.919C561.512 529.195 570.402 534.605 579.781 539.414ZM302.904 630.67C306.986 632.711 310.746 634.514 314.422 636.443C316.631 637.604 318.741 638.918 320.866 640.218C329.351 645.376 338.632 647.053 348.403 646.508C356.202 646.075 363.779 644.314 371.327 642.51C372.613 642.203 373.465 641.532 374.206 640.134C369.132 641.294 364.505 642.454 359.837 643.377C350.15 645.306 340.435 645.67 330.804 643.069C322.753 640.903 315.61 637.114 310.075 630.712C309.628 630.195 309.32 629.538 308.957 628.937C318.35 633.941 328.163 636.667 338.562 637.506C327.701 634.724 317.986 629.733 309.25 622.227C306.986 625.232 304.973 627.916 302.904 630.67ZM432.718 555.602C432.229 556.175 431.796 556.594 431.474 557.07C431.153 557.531 430.915 558.076 430.65 558.551C437.694 570.098 441.273 582.61 442.587 595.834C442.894 598.951 444.823 601.398 446.333 604.585C448.513 588.802 443.915 570.853 432.732 555.602L432.718 555.602ZM75.4115 325.645C75.4535 318.194 75.2578 310.883 76.3061 303.586C77.3824 296.191 79.7308 289.243 82.9877 282.463C81.0866 283.232 79.4931 284.224 77.8437 285.105C76.5857 285.776 75.9706 286.741 75.6911 288.111C74.6707 293.185 73.2589 298.204 72.56 303.306C71.6654 309.862 71.8891 316.446 74.1535 322.793C74.503 323.771 74.9782 324.694 75.3976 325.645L75.4115 325.645ZM613.203 366.911C613.426 367.121 613.664 367.33 613.888 367.54C614.922 366.687 616.278 366.044 616.935 364.968C621.128 358.09 625.503 351.282 629.194 344.139C633.485 335.835 636.281 326.847 635.596 317.425C634.995 309.135 633.275 300.915 631.989 292.304C630.731 292.947 629.893 293.367 629.096 293.772C630.088 296.302 631.123 298.553 631.877 300.915C635.414 312.155 634.547 323.324 631.025 334.382C627.6 345.118 621.841 354.651 615.411 363.822C614.684 364.856 613.944 365.891 613.217 366.925L613.203 366.911ZM68.0731 292.332L67.6537 291.997C66.9269 292.5 66.2279 293.059 65.4452 293.493C62.6356 295.03 61.3497 297.393 60.5948 300.524C57.0304 315.202 57.1143 329.88 60.0357 344.628C60.2873 345.873 60.6228 347.103 60.9303 348.375C63.2367 348.305 64.5646 347.033 65.9065 345.593C64.97 343.874 64.0474 342.224 63.1668 340.56C60.5529 335.556 59.1131 330.244 58.9034 324.568C58.6099 316.53 60.5109 308.982 63.67 301.698C65.0398 298.539 66.5914 295.45 68.0591 292.332L68.0731 292.332ZM130.01 199.343C131.659 201.342 132.987 203.061 134.455 204.641C135.014 205.242 135.839 205.801 136.621 205.955C141.36 206.878 146.14 207.017 150.865 205.871C152.193 205.55 153.535 204.991 154.653 204.208C156.372 203.005 156.093 201.062 154.15 200.252C153.353 199.916 152.403 199.804 151.522 199.804C149.327 199.804 147.119 199.818 144.952 200.056C140.06 200.587 135.21 200.377 129.996 199.329L130.01 199.343ZM581.682 213.154C573.114 215.041 565.146 215.153 557.277 212.497C556.34 212.19 555.32 211.98 554.341 211.98C553.111 211.98 551.867 212.26 550.665 212.413C550.665 214.287 551.643 215.195 552.692 215.936C553.74 216.677 554.872 217.46 556.088 217.753C559.164 218.494 562.295 219.179 565.44 219.515C568.543 219.85 571.45 218.341 574.47 217.809C577.056 217.348 579.362 215.699 581.682 213.154ZM175.564 156.846C174.124 160.593 172.755 164.143 172.824 168.002C172.852 169.763 173.104 171.608 173.719 173.23C174.544 175.425 176.053 175.634 177.549 173.859C178.556 172.657 179.534 171.287 180.009 169.819C180.96 166.897 181.645 163.892 182.274 160.872C182.553 159.586 182.427 158.202 182.497 156.832L175.564 156.832L175.564 156.846ZM367.846 627.79C366.043 625.665 366.043 625.568 363.471 625.679C360.326 625.833 357.237 625.288 354.204 624.799C341.861 622.8 329.994 619.109 318.378 614.538C317.595 614.23 316.77 614.049 315.96 613.797C316.141 614.496 316.477 614.804 316.882 614.985C320.209 616.551 323.648 617.921 326.877 619.668C336.438 624.841 346.614 627.622 357.475 627.846C360.815 627.916 364.17 627.804 367.846 627.776L367.846 627.79ZM519.913 115.468C519.676 116.307 519.396 117.131 519.228 117.984C518.292 122.737 518.474 127.504 519.606 132.159C520.389 135.416 521.563 138.603 522.863 141.693C523.562 143.37 524.638 145.23 526.902 145.062C528.216 144.964 528.901 142.601 528.174 139.75C527.545 137.275 526.581 134.857 525.477 132.536C522.905 127.127 520.654 121.647 519.927 115.454L519.913 115.468ZM611.833 480.478C611.581 480.324 611.344 480.114 611.078 480.03C602.579 477.444 594.151 477.85 585.848 480.869C584.674 481.303 583.541 482.085 582.619 482.952C581.375 484.126 581.626 485.287 583.192 485.986C583.891 486.293 584.757 486.545 585.498 486.433C588.042 486.055 590.684 485.846 593.074 484.979C599.169 482.756 605.249 480.632 611.847 480.464L611.833 480.478ZM78.263 396.211C87.5864 398.532 96.4624 397.47 104.919 393.08C105.856 392.591 106.68 391.752 107.323 390.899C108.162 389.795 107.855 388.691 106.541 388.299C105.339 387.95 103.927 387.726 102.753 388.034C100.362 388.649 97.9721 389.46 95.7356 390.522C90.5777 392.954 85.3919 395.233 79.6329 395.834C79.1576 395.876 78.7104 396.086 78.2491 396.225L78.263 396.211ZM318.266 73.2928C318.294 73.4885 318.266 73.7541 318.35 73.9778C320.265 78.6049 322.753 82.9105 325.912 86.7967C326.289 87.258 326.681 87.7892 327.184 88.0269C331.014 89.8162 334.872 91.5496 338.884 93.3669C339.177 91.6055 338.744 90.1657 337.779 89.0054C336.521 87.4817 335.221 85.916 333.656 84.7278C328.61 80.8555 323.438 77.1371 318.252 73.3068L318.266 73.2928ZM387.639 581.142C395.704 583.057 403.322 584.874 411.15 586.747C412.478 583.756 413.638 581.114 414.84 578.416C406.999 578.905 399.548 579.366 392.098 579.814C390.63 579.898 389.163 580.009 387.653 581.142L387.639 581.142ZM89.9906 279.08C85.7693 280.087 85.308 280.492 84.2736 284.322C83.8822 285.762 83.5048 287.202 83.2113 288.67C80.5974 301.391 81.6597 314.238 81.9952 327.043C81.9952 327.238 81.9673 327.532 82.0791 327.616C82.4565 327.909 82.8758 328.119 83.6167 328.566C83.6167 327.35 83.6167 326.567 83.6167 325.798C83.6586 319.536 83.365 313.259 83.8123 307.024C84.4833 297.602 85.5036 288.181 90.0605 279.597C90.1304 279.472 90.0186 279.248 89.9906 279.08ZM106.555 487.761C105.213 484.937 102.753 484.112 100.223 483.539C94.5195 482.253 88.7606 482.197 83.0575 483.539C80.9329 484.029 78.7244 484.518 76.8652 486.223C79.4791 486.223 81.8974 485.958 84.2317 486.293C87.6563 486.782 91.025 487.705 94.4077 488.446C96.5324 488.907 98.6431 489.564 100.81 489.816C102.892 490.068 105.003 489.9 106.555 487.775L106.555 487.761ZM75.1599 335.123C68.9257 328.259 65.7807 320.347 66.0602 311.148C64.1452 321.814 64.5646 332.159 69.4848 342.476C71.5256 339.848 73.2589 337.583 75.1739 335.123L75.1599 335.123ZM90.997 282.589C88.8864 296.414 90.2143 309.918 89.0681 323.799C90.396 323.114 91.1648 322.723 92.0174 322.29C91.2626 309.527 92.2131 296.973 94.7292 284.532C93.3873 283.833 92.3669 283.302 90.997 282.603L90.997 282.589ZM21.2326 288.125C24.2379 288.824 26.9916 288.698 29.8571 287.23C41.0535 281.512 52.8091 280.157 64.97 283.665C67.5279 284.406 69.9881 285.511 72.574 286.475C74.0557 285.483 75.5793 284.476 77.2007 283.386C72.4902 282.785 68.115 282.365 63.8097 281.638C55.2552 280.184 46.7426 280.17 38.23 281.848C32.2613 283.036 26.5163 284.895 21.2326 288.111L21.2326 288.125ZM373.2 608.862C373.158 609.058 373.13 609.254 373.088 609.45C375.87 610.666 378.539 612.427 381.447 612.986C386.143 613.881 390.98 613.825 395.732 612.916C396.529 612.763 397.466 612.287 397.941 611.658C398.891 610.414 399.562 608.96 400.625 607.129C391.217 608.96 382.23 609.184 373.2 608.848L373.2 608.862ZM621.813 296.051C624.972 306.954 625.475 317.676 624.385 328.524C627.418 317.383 628.746 306.158 626.887 294.457C625.14 295.002 623.658 295.478 621.813 296.065L621.813 296.051ZM401.282 605.983C402.61 603.508 403.979 600.95 405.405 598.28C404.874 598.196 404.65 598.098 404.497 598.154C397.06 600.88 389.344 602.138 381.447 602.362C380.636 602.39 379.825 602.865 379.015 603.131C385.137 604.445 391.148 605.242 397.158 605.969C398.43 606.122 399.73 605.997 401.282 605.997L401.282 605.983ZM591.928 251.639C593.102 251.555 593.508 251.597 593.871 251.485C596.415 250.744 598.19 248.927 599.462 246.788C603.18 240.595 606.969 234.472 613.105 230.251C608.464 231.691 602.202 235.968 597.799 240.791C596.08 242.678 594.626 244.859 593.312 247.068C592.599 248.256 592.459 249.78 591.928 251.639ZM671.673 307.178C667.801 308.338 664.838 310.757 661.846 313.161C660.267 314.433 660.393 316.348 659.764 317.97C659.051 319.829 658.548 321.772 657.653 323.548C655.207 328.426 652.621 333.249 650.063 338.072C649.588 338.981 649.056 339.847 648.539 340.742C648.721 340.84 648.903 340.938 649.084 341.036C657.178 330.16 662.769 317.593 671.659 307.164L671.673 307.178ZM96.141 528.175C96.3786 528.398 96.6163 528.622 96.8539 528.846C97.9861 528.301 99.1882 527.839 100.265 527.182C105.464 524.051 109.029 519.41 112.048 514.307C112.495 513.553 112.817 512.658 112.929 511.791C113.124 510.267 111.936 509.485 110.65 510.351C109.686 510.994 108.903 511.959 108.162 512.868C106.457 514.95 104.877 517.131 103.158 519.2C101.425 521.269 99.5376 523.184 97.8184 525.267C97.1194 526.12 96.7001 527.196 96.141 528.161L96.141 528.175ZM331.769 111.777C326.863 108.982 322.543 106.368 318.056 104.033C316.211 103.068 314.115 103.39 311.99 104.383C315.121 108.087 318.643 110.967 322.515 113.413C323.047 113.749 323.857 113.958 324.43 113.818C326.737 113.273 329.001 112.56 331.769 111.777ZM323.913 606.612C322.306 602.712 320.81 599.105 319.245 595.317C318.797 598.755 320.503 601.677 321.271 605.465C320.153 604.207 319.538 603.508 318.657 602.516C317.945 605.997 317.302 609.1 316.645 612.301C321.816 612.86 326.611 613.392 331.783 613.951C330.637 611.798 329.588 610.358 327.45 609.729C325.157 609.044 322.963 607.996 320.726 607.115C320.782 606.947 320.824 606.78 320.88 606.612L323.913 606.612ZM619.088 283.442C614.978 281.75 612.057 278.591 608.828 275.809C607.472 274.649 606.032 273.558 604.536 272.58C603.726 272.048 602.733 271.573 601.797 271.531C601.042 271.489 599.966 271.937 599.56 272.524C599.169 273.097 599.141 274.299 599.476 274.928C599.966 275.837 600.86 276.606 601.741 277.221C603.194 278.255 604.732 279.22 606.312 280.059C610.281 282.183 614.587 283.134 619.101 283.442L619.088 283.442ZM171.72 119.298C172.237 121.116 173.076 120.57 173.873 120.137C183.336 115.091 193.442 114.587 203.8 115.985C206.526 116.349 209.223 116.852 212.047 117.313C210.649 113.818 208.441 112.169 204.667 112.672C199.145 113.413 193.568 113.651 188.075 114.545C182.497 115.454 177.06 117.09 171.72 119.298ZM159.154 137.01C156.079 138.072 156.093 138.072 156.093 140.686C156.093 142.574 155.911 144.461 156.037 146.334C156.177 148.403 156.428 150.472 156.889 152.485C157.197 153.813 157.952 155.043 159.601 155.197C162.117 152.974 161.74 150.122 161.544 147.382C161.502 146.767 160.678 146.194 160.3 145.733C162.117 142.546 160.035 139.89 159.154 137.01ZM121.134 155.84C121.022 156.077 120.924 156.315 120.812 156.567C120.98 156.902 121.106 157.294 121.343 157.573C125.83 162.829 131.841 165.318 138.355 166.841C139.445 167.093 140.563 166.883 141.192 165.178C140.354 164.563 139.515 163.724 138.494 163.249C133.728 160.998 128.919 158.817 124.097 156.679C123.16 156.259 122.112 156.119 121.12 155.854L121.134 155.84ZM110.454 363.654C109.839 357.349 97.6506 347.298 90.8713 347.033C91.5842 347.858 92.0873 348.57 92.7164 349.13C97.5527 353.421 102.389 357.713 107.281 361.935C108.036 362.592 109.057 362.927 110.441 363.668L110.454 363.654ZM410.004 588.299C410.004 588.299 409.878 588.131 409.808 588.117C404.259 587.978 398.71 587.838 393.146 587.782C392.587 587.782 391.888 588.243 391.483 588.69C390.91 589.306 390.561 590.116 389.973 591.081C395.257 591.906 400.275 592.381 405.349 592.227C408.942 592.115 409.012 592.045 410.004 588.285L410.004 588.299ZM552.846 147.48C554.565 148.263 555.599 147.55 556.494 146.837C561.847 142.574 566.432 137.667 568.948 131.153C569.242 130.37 569.382 129.531 569.773 128.049C568.641 128.916 568.04 129.251 567.592 129.755C563.091 134.801 558.605 139.848 554.173 144.936C553.586 145.607 553.321 146.544 552.846 147.48ZM577.167 510.225C576.091 511.889 576.804 513.077 577.489 514.112C581.179 519.633 585.498 524.54 591.537 527.629C592.375 528.063 593.298 528.314 594.193 528.664C594.039 527.546 593.62 526.805 593.046 526.204C588.643 521.465 584.226 516.74 579.767 512.071C579.068 511.33 578.09 510.868 577.181 510.239L577.167 510.225ZM343.566 661.424C342.867 661.186 342.672 661.061 342.504 661.089C341.819 661.186 341.134 661.326 340.449 661.452C334.271 662.598 328.065 663.759 321.775 663.213C319.161 662.99 317.106 663.521 315.149 665.059C313.821 666.107 312.451 667.1 311.151 668.176C310.704 668.553 310.396 669.113 310.159 669.42C321.159 666.792 332.146 664.15 343.566 661.424ZM654.55 360.802C653.879 360.872 653.194 360.9 652.537 361.04C644.975 362.619 637.399 363.444 629.753 361.571C629.291 361.459 628.69 361.361 628.299 361.571C626.216 362.578 624.162 363.668 622.107 364.73L622.358 365.415C633.359 366.044 644.094 364.563 654.55 360.83L654.55 360.802ZM314.702 616.775C313.514 618.368 312.479 619.766 311.361 621.276C317.581 624.002 323.62 626.406 330.064 627.846C324.962 624.17 319.874 620.493 314.702 616.775ZM603.194 346.515C600.175 353.729 597.31 360.551 594.36 367.61C594.444 367.75 594.668 368.183 594.961 368.575C595.129 368.798 595.395 368.952 595.856 369.316C599.504 361.809 603.083 354.386 605.78 346.096C604.508 346.292 603.754 346.418 603.194 346.501L603.194 346.515ZM376.834 617.865C377.491 620.269 378.805 621.01 380.93 620.745C383.977 620.367 387.052 620.186 390.113 619.836C393.16 619.487 394.558 618.089 395.481 614.51C389.54 617.208 383.292 617.446 376.848 617.865L376.834 617.865ZM429.629 115.426C430.817 115.202 431.558 115.132 432.271 114.923C439.232 112.812 446.375 112.91 453.532 113.077C456.076 113.133 458.675 113.595 461.709 112.085C458.508 111.819 455.936 111.456 453.364 111.414C447.479 111.33 441.594 111.54 435.71 111.358C432.718 111.26 431.251 112.826 429.629 115.44L429.629 115.426ZM391.287 621.234C383.963 624.072 376.401 625.204 368.755 625.889C369.146 627.706 370.362 627.65 371.578 627.525C375.324 627.147 379.071 626.518 382.831 626.462C386.465 626.406 389.093 625.106 390.868 622.003C391.008 621.751 391.148 621.486 391.287 621.234ZM504.635 79.0522C504.565 78.8984 504.51 78.7447 504.44 78.5909C495.256 80.0168 486.086 81.4287 476.903 82.8545C477.252 83.2739 477.546 83.3578 477.839 83.3159C483.808 82.7008 489.763 82.4631 495.745 83.3438C496.486 83.4557 497.395 83.3438 498.038 82.9803C500.288 81.7502 502.455 80.3662 504.649 79.0522L504.635 79.0522ZM190.129 178.43C196.517 179.59 198.404 178.458 199.914 172.671C198.209 172.07 196.489 171.454 194.56 170.77C193.023 173.426 191.611 175.872 190.129 178.444L190.129 178.43ZM169.693 501.824C171.525 508.185 174.823 513.79 178.877 519.102C179.31 517.355 179.506 515.691 179.394 514.056C179.338 513.259 178.891 512.28 178.304 511.763C175.005 508.842 172.042 505.682 169.707 501.838L169.693 501.824ZM613.189 299.699C614.601 304.676 615.928 309.373 617.326 314.307C618.277 311.176 618.333 300.468 617.424 297.546C616.012 298.259 614.642 298.958 613.189 299.685L613.189 299.699ZM369.817 646.662C368.601 647.808 367.329 648.885 366.225 650.115C365.736 650.646 365.4 651.485 365.344 652.212C364.869 657.552 362.982 662.417 360.564 667.128C360.13 667.966 359.739 668.833 359.334 669.686C364.659 662.892 368.182 655.273 369.831 646.676L369.817 646.662ZM616.502 353.924C612.14 360.159 608.101 365.933 603.893 371.944C606.214 370.867 608.366 369.945 610.449 368.868C610.98 368.589 611.456 367.918 611.665 367.33C613.245 363.081 614.754 358.803 616.502 353.924ZM395.676 637.128C395.858 637.1 396.04 637.086 396.222 637.058C396.403 630.726 396.571 624.393 396.767 617.418C395.383 619.249 394.321 620.535 393.426 621.933C393.049 622.534 392.783 623.443 392.923 624.128C393.775 628.475 394.74 632.795 395.663 637.128L395.676 637.128ZM512.435 157.629C511.568 163.626 514.825 168.966 520.151 170.993C519.368 165.611 516.293 161.781 512.435 157.629ZM116.13 486.293C115.696 486.545 114.326 486.894 113.893 487.733C113.152 489.159 114.48 490.082 115.584 490.767C117.499 491.941 119.596 492.542 121.847 492.067C123.929 491.619 124.363 490.179 122.853 488.642C121.232 487.006 119.121 486.461 116.13 486.293ZM428.665 561.571C427.323 563.137 426.177 564.465 425.002 565.835C427.77 569.944 430.468 573.942 433.152 577.927C433.291 577.871 433.417 577.815 433.557 577.759C431.936 572.419 430.328 567.079 428.651 561.571L428.665 561.571ZM611.973 250.003C612.071 250.297 612.168 250.59 612.266 250.87C612.895 250.898 613.608 251.15 614.139 250.926C615.313 250.451 616.516 249.892 617.508 249.109C620.751 246.551 623.91 243.88 627.418 240.987C621.1 242.524 615.551 244.621 611.973 249.989L611.973 250.003ZM598.917 373.971C600.79 373.621 601.671 372.643 602.272 371.287C604.159 367.121 606.102 362.983 607.989 358.817C608.269 358.202 608.394 357.503 608.744 356.399C604.886 361.976 601.335 367.107 597.701 372.363C598.079 372.866 598.484 373.397 598.917 373.957L598.917 373.971ZM63.6001 277.067L63.5721 277.598C68.0032 278.954 72.4482 280.324 76.8932 281.666C79.8286 282.547 81.8135 280.939 84.008 279.178C76.9911 278.451 70.2956 277.766 63.6141 277.081L63.6001 277.067ZM384.047 596.673C385.221 596.784 386.381 597.022 387.555 596.994C393.118 596.868 398.682 596.715 404.245 596.449C406.803 596.337 407.055 595.932 407.53 592.912C399.884 595.764 391.944 595.96 384.047 596.673ZM406.272 600.713C408.732 606.528 411.108 612.148 413.484 617.767C413.526 617.753 413.582 617.739 413.624 617.725C412.031 610.61 410.423 603.494 408.732 595.96C407.795 597.777 406.985 599.329 406.258 600.713L406.272 600.713ZM502.706 145.747L502.706 155.322C505.586 155.742 508.2 156.119 510.981 156.525C508.214 152.918 505.53 149.423 502.706 145.747ZM32.471 307.122L32.7226 307.64C33.743 307.318 34.7355 306.899 35.7698 306.689C39.2503 305.962 42.7309 304.816 46.2254 304.732C49.664 304.662 51.5929 302.873 53.9832 300.454C46.1415 301.614 39.0826 303.669 32.457 307.108L32.471 307.122ZM478.385 104.788C484.269 107.905 490.056 110.981 496.011 114.14C496.151 113.231 496.318 112.197 496.5 111.106C490.685 107.989 484.703 106.018 478.385 104.788ZM202.081 105.752C199.369 98.9586 195.623 92.9056 190.549 87.6774C190.758 88.5301 191.234 89.2151 191.611 89.956C193.232 93.1293 195.301 96.1768 196.294 99.5318C197.244 102.775 199.229 104.508 202.081 105.738L202.081 105.752ZM419.663 598.811C419.845 598.783 420.04 598.755 420.222 598.728C419.034 592.311 417.846 585.895 416.574 579.045C415.609 581.142 413.974 582.791 414.617 584.804C416.112 589.529 417.957 594.142 419.663 598.797L419.663 598.811ZM528.076 155.63C528.524 158.663 529.39 161.068 531.627 162.703C533.039 163.738 534.171 163.109 534.129 161.348C534.073 158.761 533.151 156.469 531.18 154.735C530.648 154.274 529.67 153.869 529.097 154.05C528.566 154.218 528.314 155.225 528.076 155.63ZM158.469 166.198C158.777 167.498 158.874 168.617 159.308 169.595C159.587 170.238 160.286 171.049 160.859 171.105C161.446 171.161 162.383 170.532 162.69 169.959C163.906 167.624 163.893 165.164 162.732 162.815C162.006 161.348 160.552 161.32 159.727 162.773C159.112 163.864 158.846 165.15 158.469 166.212L158.469 166.198ZM460.437 75.865C456.355 79.3457 450.387 90.3893 450.247 94.2895C450.778 93.8981 451.225 93.5207 451.728 93.1991C453.587 92.0389 454.44 90.3753 455.055 88.2225C456.006 84.9234 457.571 81.7922 458.927 78.6049C459.332 77.6543 459.92 76.7736 460.437 75.851L460.437 75.865ZM563.441 489.662C567.578 491.088 571.464 489.55 572.932 486.069C569.885 483.595 564.28 485.622 563.441 489.662ZM380.51 633.955C374.248 635.633 368.349 637.212 362.171 638.876C366.434 638.876 370.432 638.876 374.416 638.862C374.989 638.862 375.73 638.834 376.079 638.498C377.561 637.114 378.931 635.591 380.496 633.955L380.51 633.955ZM647.798 358.188C644.5 357.685 641.956 357.293 639.412 356.916C638.838 356.832 638.14 356.608 637.678 356.832C635.316 357.936 632.87 358.901 630.228 360.816C636.448 360.732 641.872 359.824 647.798 358.174L647.798 358.188ZM54.4445 302.048C52.4596 302.775 51.2854 304.201 50.7543 306.27C49.8177 309.82 48.7834 313.343 47.8608 316.894C47.5393 318.138 47.3716 319.424 47.1759 320.696C46.9802 321.94 46.8544 323.198 46.7426 324.051C49.2167 316.978 51.8026 309.597 54.4584 302.062L54.4445 302.048ZM367.021 633.27L367.119 633.647C371.075 633.284 375.017 632.725 378.973 632.627C382.216 632.543 383.837 630.656 385.626 628.028C379.154 629.845 373.088 631.565 367.021 633.27ZM201.13 107.136C201.2 106.983 201.27 106.843 201.34 106.689C200.054 106.06 198.796 104.984 197.482 104.886C190.647 104.368 183.811 104.369 177.549 105.557C185.097 106.06 193.121 106.605 201.144 107.136L201.13 107.136ZM102.641 310.491C102.04 313.762 101.523 316.53 100.991 319.396C103.214 319.997 104.863 319.116 106.429 318.11C107.226 317.593 107.351 316.796 106.68 316.097C106.233 315.622 105.59 315.314 105.031 314.937C105.311 314.475 105.66 313.888 106.051 313.245C105.003 312.406 104.011 311.61 102.627 310.505L102.641 310.491ZM329.141 599.93C328.945 598.755 328.764 597.581 328.554 596.407C327.506 590.522 327.883 584.734 329.854 579.087C330.762 576.473 330.581 575.955 328.121 574.362C327.771 578.653 327.352 583.001 327.072 587.348C326.737 592.675 327.45 597.833 329.127 599.93L329.141 599.93ZM407.446 576.067C410.018 576.515 412.618 576.962 415.218 577.423C416.07 575.452 416.965 573.887 417.315 572.125C414.575 572.698 412.185 573.355 409.738 573.663C408.271 573.845 407.572 574.418 407.432 576.081L407.446 576.067ZM591.159 361.068C592.809 357.545 594.193 351.967 594.067 349.493C591.774 349.661 591.774 349.661 591.145 351.52C590.74 352.736 590.474 354.008 589.915 355.155C588.797 357.475 589.706 359.223 591.159 361.068ZM65.8505 291.298C65.8086 291.13 65.7666 290.948 65.7247 290.781C63.2786 291.116 60.8324 291.424 58.3863 291.787C56.0659 292.137 53.6338 291.843 51.3833 292.71C53.0606 293.227 54.8778 293.213 56.3175 293.94C59.854 295.729 62.5238 294.597 65.0119 292.053C65.2774 291.787 65.571 291.536 65.8505 291.284L65.8505 291.298ZM324.626 564.8C325.087 566.897 326.08 567.792 327.771 568.001C330.133 568.295 332.482 568.686 334.844 569.022C336.34 569.232 337.542 568.714 338.492 567.442C333.88 566.561 329.351 565.695 324.626 564.8ZM627.768 370.112C627.796 370 627.824 369.889 627.852 369.777C625.489 368.617 623.155 367.428 620.765 366.338C620.29 366.128 619.563 366.128 619.088 366.338C617.452 367.107 615.873 368.015 614.279 368.882C614.321 369.092 614.377 369.301 614.419 369.525C618.864 369.721 623.323 369.917 627.768 370.126L627.768 370.112ZM435.22 109.695C440.7 108.59 445.774 107.57 450.862 106.535C447.311 106.172 443.831 106.2 440.336 106.172C437.946 106.144 436.604 107.556 435.22 109.695ZM399.185 108.604C400.443 107.234 401.813 106.381 402.176 105.221C402.805 103.138 402.833 100.86 403.127 98.4972C398.668 100.552 398.234 103.991 399.185 108.604ZM640.837 343.174L640.53 342.909C637.455 348.165 634.379 353.407 631.025 359.153C632.8 358.104 634.589 358.076 635.344 356.259C637.161 351.897 639.006 347.536 640.837 343.174ZM440.28 104.732C445.62 103.781 450.694 102.873 456.048 101.922C453.042 101.657 450.247 101.698 447.563 101.125C444.082 100.384 442.321 102.411 440.266 104.746L440.28 104.732ZM52.2919 335.877C52.1661 335.891 52.0263 335.919 51.9005 335.933C52.1102 339.386 52.2639 342.839 52.5714 346.278C52.7531 348.389 53.8434 349.074 56.1078 348.794C54.8359 344.489 53.5639 340.183 52.2919 335.863L52.2919 335.877ZM427.295 105.836C425.254 109.82 424.583 113.623 424.345 117.788C427.295 115.664 428.916 113.273 427.952 109.681C427.658 108.576 427.56 107.43 427.309 105.836L427.295 105.836ZM205.449 128.511C198.922 126.078 197.789 125.505 194.449 127.979C196.629 130.076 196.643 130.132 198.125 129.881C200.529 129.475 202.905 128.986 205.449 128.511ZM56.2057 287.593C56.2057 287.761 56.2057 287.929 56.2057 288.097C59.5464 288.572 62.9151 288.991 66.2419 289.564C68.2967 289.914 69.4848 288.963 70.5192 287.593L56.1918 287.593L56.2057 287.593ZM630.801 353.477C627.74 356.608 624.791 359.628 621.841 362.647C621.785 362.717 621.729 362.843 621.757 362.927C621.771 362.997 621.897 363.039 621.981 363.095C626.957 361.851 630.494 359.278 630.815 353.477L630.801 353.477ZM213.319 111.414C211.921 107.598 210.649 104.145 209.279 100.44C209.363 103.949 209.405 107.108 209.517 110.268C209.531 110.827 209.615 111.554 209.964 111.875C211.013 112.826 212.229 113.623 213.361 114.475C213.487 114.322 213.598 114.182 213.724 114.028C212.746 112.994 211.767 111.973 210.775 110.939C210.817 110.827 210.873 110.715 210.915 110.589C211.586 110.827 212.257 111.051 213.305 111.414L213.319 111.414ZM324.598 568.812C324.374 573.873 324.165 578.598 323.955 583.322C325.087 580.652 325.66 577.871 326.499 575.159C327.24 572.712 326.765 570.755 324.598 568.812ZM629.18 273.726C625.643 272.062 622.121 270.413 618.584 268.763C617.955 268.47 617.326 268.19 616.669 267.981C616.446 267.911 616.138 268.064 615.272 268.246C619.549 271.783 623.826 273.964 629.18 273.74L629.18 273.726ZM364.184 653.12L363.555 652.463C362.087 654.127 360.172 655.595 359.278 657.524C358.369 659.481 358.481 661.899 358.145 664.108C360.857 660.767 362.772 657.077 364.184 653.12ZM135.461 428.727C136.943 429.566 138.131 430.237 139.291 430.894C140.395 429.901 141.318 429.076 142.269 428.224C141.108 426.784 140.2 425.652 139.179 424.365C137.907 425.847 136.817 427.119 135.461 428.727ZM372.501 652.1C373.969 648.717 375.003 645.278 375.702 641.504C374.066 642.916 372.739 644.062 371.494 645.138C371.844 647.613 372.165 649.849 372.487 652.1L372.501 652.1ZM201.354 156.273C200.655 158.118 199.998 159.838 199.187 161.977C200.962 161.809 202.318 161.683 203.856 161.543C204.149 159.698 204.429 158.007 204.75 156.021C203.339 156.133 202.374 156.203 201.368 156.273L201.354 156.273ZM578.663 251.527C580.578 248.885 581.598 246.229 582.367 243.14C577.083 245.907 576.035 248.13 578.663 251.527ZM435.612 552.568C438.002 555.294 440.294 557.908 442.587 560.508C442.713 560.425 442.838 560.341 442.964 560.257C441.441 557 439.931 553.743 438.31 550.262C437.247 551.17 436.506 551.799 435.612 552.568ZM504.244 514.196C505.837 515.384 507.263 516.446 508.773 517.592C509.891 513.916 508.941 512.252 505.125 510.771C504.859 511.819 504.593 512.854 504.244 514.196ZM308.677 129.629C311.934 132.047 313.08 131.949 316.547 129.056C314.045 128.357 311.626 127.686 309.041 126.959C308.901 127.965 308.803 128.734 308.677 129.629ZM145.176 415.95C143.68 418.494 141.877 420.004 141.164 422.283L147.273 422.283C146.574 420.2 146.001 418.438 145.162 415.95L145.176 415.95ZM182.399 148.137C176.976 148.878 176.948 148.906 177.116 153.184C178.919 152.597 180.68 152.023 182.553 151.408C182.497 150.262 182.455 149.311 182.399 148.123L182.399 148.137ZM204.163 100.93C203.59 104.774 202.891 108.73 208.231 110.156C206.805 106.927 205.491 103.935 204.163 100.93ZM148.587 260.208L148.587 265.143C149.048 264.765 149.439 264.444 149.956 264.024L149.956 266.89C152.417 267.338 152.375 265.422 153.074 264.122C151.718 262.766 151.242 260.725 148.587 260.208ZM412.925 587.908C409.99 592.171 410.311 595.582 413.722 598.895C413.471 595.359 413.205 591.822 412.925 587.908ZM461.401 80.0448C459.067 82.8686 456.984 85.8741 455.475 89.8581C458.736 87.6587 460.712 84.3876 461.401 80.0448ZM367.203 617.739C368.713 620.465 372.137 621.318 375.464 620.004C373.796 618.317 371.043 617.562 367.203 617.739ZM55.395 299.685C56.7089 298.595 57.8831 297.63 59.0572 296.666C58.9594 296.484 58.8616 296.302 58.7637 296.121C55.6047 296.61 52.4456 297.099 49.2866 297.589C49.2866 297.756 49.2866 297.924 49.2866 298.092C51.2575 298.609 53.2284 299.126 55.395 299.685ZM362.535 652.156C357.838 653.065 353.337 653.931 348.836 654.798C352.191 655.064 355.518 654.854 358.844 654.756C360.634 654.7 361.696 653.833 362.549 652.156L362.535 652.156ZM221.734 158.957C224.487 158.412 227.241 157.867 230.093 157.308C229.995 156.147 229.925 155.392 229.827 154.428C226.682 155.309 224.026 156.665 221.734 158.943L221.734 158.957ZM368.95 645.404C365.414 647.053 362.241 648.521 358.998 650.031C363.178 651.471 365.274 650.534 368.95 645.404ZM50.1952 359.181L50.922 359.125C50.8241 357.895 50.964 356.581 50.5586 355.476C49.3705 352.163 47.9587 348.934 46.5329 345.439C46.8824 350.43 48.0146 354.945 50.1952 359.195L50.1952 359.181ZM182.847 123.101C185.335 124.373 185.782 124.415 187.376 123.8C190.213 122.695 193.051 121.633 196.308 120.389C191.513 120.962 187.18 121.535 182.847 123.115L182.847 123.101ZM604.494 373.747C608.688 373.327 612.182 372.964 616.194 372.559C614.838 371.706 613.916 370.993 612.881 370.532C612.336 370.294 611.483 370.28 610.938 370.532C608.953 371.412 607.052 372.447 604.494 373.747ZM418.74 125.924C419.844 124.387 420.557 123.24 421.424 122.206C422.696 120.682 422.472 119.214 421.578 117.565C418.545 119.48 417.971 122.15 418.74 125.91L418.74 125.924ZM445.243 98.1757C446.347 96.9875 448.597 96.8477 448.569 94.5271C448.541 92.8776 448.569 91.242 448.569 89.1452C446.934 91.3958 445.662 94.6809 445.257 98.1757L445.243 98.1757ZM125.103 270.273C123.133 273.321 122.657 284.867 124.433 288.222C124.265 284.756 123.929 281.946 124.041 279.164C124.153 276.368 124.684 273.586 125.103 270.259L125.103 270.273ZM370.418 589.194C374.821 589.613 378.344 588.663 382.495 587.348C377.924 586.09 374.458 587.307 370.418 589.194ZM342.308 584.874C341.05 582.092 338.954 580.778 335.096 580.303C336.857 582.791 338.478 585.335 342.308 584.874ZM336.032 591.542C338.073 585.084 337.933 584.413 334.187 581.855C334.788 585.014 335.375 588.075 336.032 591.542ZM457.487 89.9839C462.38 89.4247 466.978 88.9075 471.577 88.3763C467.915 88.0268 464.267 88.0548 460.618 88.0268C459.374 88.0268 458.242 88.1247 457.487 89.9839ZM437.345 116.67L430.342 116.67C430.789 117.872 431.097 118.711 431.348 119.396C434.06 119.732 435.724 118.348 437.345 116.67ZM174.795 518.935C174.581 522.522 175.21 524.843 176.682 525.896C177.256 524.624 177.815 523.38 178.416 522.066C177.256 521.059 176.235 520.179 174.795 518.948L174.795 518.935ZM129.241 361.529C130.527 363.766 132.148 365.08 134.581 364.423C135.615 364.143 136.356 363.514 135.531 362.06C133.504 361.893 131.366 361.711 129.241 361.529ZM233.126 101.181C233.503 105.417 233.867 109.639 234.3 113.86C234.342 114.28 234.859 114.657 235.153 115.063C235.167 110.24 234.817 105.599 233.126 101.181ZM73.5804 288.39C73.4126 288.25 73.259 288.125 73.0912 287.985C72.2385 288.824 70.9945 289.523 70.6031 290.543C69.7505 292.822 69.3171 295.268 68.73 297.644C68.8419 297.686 68.9537 297.714 69.0795 297.756L73.5944 288.39L73.5804 288.39ZM460.199 92.0808C455.922 90.4313 453.392 92.4023 450.82 95.6035C454.147 94.3594 457.012 93.283 460.199 92.0808ZM332.174 588.495C332.342 588.495 332.51 588.509 332.677 588.523C332.817 586.16 332.873 583.798 333.111 581.435C333.264 579.94 332.733 579.045 331.182 578.29C331.531 581.869 331.853 585.182 332.174 588.495ZM343.469 616.02C341.889 613.699 339.625 612.986 337.668 613.811C337.374 613.937 336.955 613.741 336.591 613.699C336.228 613.657 335.864 613.629 335.501 613.587C335.445 613.839 335.403 614.077 335.347 614.328C337.807 615.181 340.407 615.503 343.441 616.02L343.469 616.02ZM550.078 283.525C550.316 283.455 550.539 283.372 550.777 283.302C550.777 281.149 551.448 278.982 550.693 276.718C548.345 278.297 548.317 278.297 548.946 280.31C549.281 281.401 549.701 282.449 550.078 283.525ZM215.43 104.48L215.038 104.578C215.388 107.122 215.779 109.653 216.073 112.197C216.226 113.497 216.925 114 218.519 114.28C217.414 110.771 216.422 107.626 215.43 104.48ZM190.115 98.5532C189.179 96.8338 187.921 96.4703 186.439 96.4144C185.153 96.3585 183.867 96.1068 182.581 96.0369C181.309 95.9671 180.037 96.023 178.29 96.023C182.469 96.9176 186.132 97.7005 190.115 98.5532ZM349.898 580.597C354.427 582.064 358.201 579.926 361.85 577.395C359.907 577.927 358.062 578.751 356.133 579.297C354.05 579.884 351.897 580.191 349.884 580.597L349.898 580.597ZM406.146 611.644C406.342 611.588 406.523 611.532 406.719 611.477C405.839 608.876 406.244 606.067 405.098 603.425C404.455 604.389 403.812 605.465 404.021 606.318C404.497 608.149 405.405 609.883 406.132 611.644L406.146 611.644ZM411.625 125.659C411.43 126.106 411.024 126.567 411.066 126.987C411.206 128.65 411.094 130.384 411.849 131.963C414.295 131.055 414.351 130.677 411.625 125.659ZM195.483 169.414C197.65 169.735 199.495 170.168 201.549 168.952C200.054 168.253 198.558 167.54 196.895 166.758C196.391 167.708 196 168.435 195.483 169.4L195.483 169.414ZM606.773 253.792C603.25 254.77 602.23 255.889 602.454 258.349C604.718 257.762 606.381 256.699 606.773 253.792ZM100.726 272.244C100.251 268.931 98.0699 267.939 94.7292 267.575C97.0356 269.337 98.4893 271.28 100.726 272.244ZM510.758 190.872C510.282 190.508 509.807 190.145 509.234 189.711C508.046 191.165 507.012 192.451 505.921 193.779C508.144 194.856 508.2 194.828 510.744 190.872L510.758 190.872ZM485.541 114.14C485.374 114.35 485.22 114.545 485.052 114.755C486.618 116.041 488.169 117.327 489.847 118.697C490.42 117.928 490.797 117.411 491.37 116.642C489.259 115.734 487.386 114.937 485.527 114.14L485.541 114.14ZM92.311 277.99C91.9056 279.485 91.6401 280.492 91.3465 281.638C92.8841 281.876 94.1142 282.072 95.4141 282.267C95.9453 279.667 93.7367 279.541 92.3249 277.99L92.311 277.99ZM346.53 575.858C350.779 576.221 351.212 576.025 351.855 573.495C349.437 572.768 348.025 574.18 346.53 575.858ZM380.874 636.863C376.652 639.659 376.303 639.882 378.134 643.671C379.071 641.35 379.965 639.113 380.874 636.863ZM158.162 134.13C156.708 132.103 155.562 130.51 154.429 128.916C154.29 129.014 154.136 129.112 153.996 129.209C154.625 131.32 155.24 133.417 156.023 136.059C156.931 135.248 157.491 134.745 158.176 134.13L158.162 134.13ZM177.004 131.572C177.256 131.628 177.507 131.698 177.759 131.754C177.968 131.097 178.43 130.384 178.318 129.783C178.108 128.636 177.633 127.518 177.144 126.442C176.99 126.106 176.431 125.966 176.053 125.743C175.844 126.218 175.382 126.749 175.48 127.141C175.886 128.65 176.473 130.104 176.99 131.586L177.004 131.572ZM439.581 102.523C443.705 99.7693 443.929 100.328 442.643 96.5401C441.58 98.609 440.588 100.566 439.581 102.523ZM205.743 110.953C203.52 107.164 200.599 109.135 197.957 109.527C200.459 109.988 202.961 110.449 205.743 110.953ZM59.4207 298.483C55.395 299.867 55.9821 302.859 55.9261 305.571C57.0025 303.39 58.0648 301.223 59.4207 298.483ZM329.393 601.929L328.568 602.306C329.183 603.886 329.77 605.493 330.483 607.031C330.581 607.227 331.349 607.115 332.048 607.157C331.126 605.214 330.916 603.229 329.393 601.943L329.393 601.929ZM496.318 128.804C496.039 128.86 495.773 128.916 495.494 128.972C495.41 131.628 496.276 133.99 498.219 136.031C497.59 133.627 496.947 131.222 496.318 128.818L496.318 128.804ZM42.9964 310.981C42.8287 310.841 42.647 310.715 42.4792 310.575C39.7535 312.295 39.7396 315.356 39.1525 318.138C40.4385 315.747 41.7244 313.357 43.0104 310.981L42.9964 310.981ZM389.316 587.74C386.213 586.887 385.053 588.858 383.334 590.298C386.018 590.969 387.304 589.222 389.316 587.74ZM216.604 121.423C214.102 118.613 210.971 120.207 208.049 120.095C210.901 120.542 213.752 120.976 216.604 121.423ZM345.216 599.454C345.439 599.357 345.663 599.245 345.873 599.147C345.663 597.707 345.467 596.281 345.23 594.674L343.077 594.674C343.776 596.463 343.874 598.252 345.202 599.454L345.216 599.454ZM324.053 598.126C324.053 601.146 324.682 603.592 325.591 605.983C325.716 606.304 326.359 606.416 327.128 606.807C326.038 603.732 325.115 601.146 324.039 598.126L324.053 598.126ZM227.563 173.216C229.519 173.328 231.658 174.097 233.727 172.195C231.225 171.454 229.45 172.545 227.563 173.216ZM339.023 607.758C338.255 606.123 338.297 604.515 336.689 603.089L336.689 607.758L339.023 607.758ZM102.781 306.325C103.997 308.45 105.898 309.163 108.833 308.702C106.89 307.416 105.129 306.969 102.781 306.325ZM218.085 156.245C219.483 155.127 220.741 154.12 221.999 153.114C221.901 152.96 221.818 152.806 221.72 152.653C220.238 153.03 218.742 153.407 217.107 153.841C217.498 154.777 217.75 155.406 218.085 156.245ZM339.652 591.654C341.749 589.11 341.47 588.341 338.52 586.929C338.884 588.411 339.205 589.781 339.652 591.654ZM338.688 578.709C336.563 577.871 334.439 577.032 332.328 576.179C333.726 579.003 336.41 578.29 338.688 578.709ZM508.689 212.931C509.905 210.526 509.08 209.646 505.879 209.715C506.858 210.834 507.655 211.742 508.689 212.931ZM178.206 144.698C179.464 143.3 181.938 144.041 181.267 141.427C179.329 141.753 178.309 142.844 178.206 144.698ZM357.195 573.271C354.996 573.038 353.658 573.668 353.183 575.159C354.861 574.87 356.198 574.241 357.195 573.271ZM607.472 311.749C606.969 314.168 608.702 314.755 610.142 315.789C610.729 313.301 609.023 312.7 607.472 311.749ZM610.03 320.221C610.659 317.593 610.505 317.383 607.15 316.265C607.43 318.166 608.786 319.046 610.03 320.221ZM230.498 141.301C232.637 141.427 234.789 141.553 236.928 141.665C237.054 141.665 237.179 141.441 237.319 141.315C235.446 140.519 234.789 140.477 230.498 141.315L230.498 141.301ZM346.264 567.806C344.167 567.302 342.77 567.68 341.693 569.176C343.161 568.896 344.936 569.916 346.264 567.806ZM415.777 123.562C414.91 125.547 415.469 127.196 415.609 129.014C416.671 128.147 416.727 126.33 415.777 123.562ZM495.144 118.711C494.613 120.305 494.25 121.87 495.661 123.744C495.773 121.731 496.109 120.165 495.144 118.711ZM573.589 291.116C573.98 289.075 573.547 287.598 572.289 286.685C572.792 288.418 573.198 289.774 573.589 291.116ZM151.648 113.273C153.926 113.441 154.262 113.273 157.015 110.799C155.226 111.624 153.437 112.448 151.648 113.273ZM344.685 588.061C343.371 587.474 342.057 586.887 340.281 586.09C341.358 588.495 342.853 588.663 344.685 588.061ZM360.06 125.729C359.907 125.98 359.753 126.246 359.599 126.497C360.466 127.616 361.444 128.483 363.317 127.574C362.227 126.959 361.151 126.344 360.06 125.715L360.06 125.729ZM347.075 614.943C346.879 617.488 348.459 616.761 349.493 617.11C349.605 616.9 349.717 616.691 349.829 616.481C348.906 615.964 347.983 615.461 347.075 614.943ZM235.083 117.355C234.831 117.439 234.579 117.523 234.328 117.593C233.964 118.977 234.006 120.207 236.299 121.032C235.796 119.508 235.432 118.418 235.069 117.341L235.083 117.355ZM332.104 611.742C332.901 612.916 332.929 614.147 334.355 614.314C334.858 612.609 334.355 611.77 332.104 611.742ZM318.867 132.509C317.567 132.676 316.449 132.816 315.051 132.984C316.878 134.056 318.15 133.897 318.867 132.509ZM102.948 302.411C105.101 303.641 106.806 303.977 108.651 303.697C107.058 302.859 105.45 302.118 102.948 302.411ZM370.041 101.069C369.845 99.8392 369.635 98.623 369.37 96.9176C367.706 98.9725 369.048 99.993 370.041 101.069ZM235.069 131.53C235.656 133.347 236.089 134.703 236.522 136.059C237.501 134.214 237.11 132.844 235.069 131.53ZM558.339 270.637C555.25 270.762 555.208 270.804 555.753 272.985C556.536 272.272 557.221 271.657 558.339 270.637ZM217.82 171.776C219.218 172.447 220.671 173.356 221.971 171.161C220.364 171.399 219.092 171.594 217.82 171.776ZM362.269 617.446C363.122 618.788 363.639 620.06 365.582 619.556C364.673 618.55 364.1 617.39 362.269 617.446ZM553.517 276.871C554.006 276.005 554.481 275.124 555.04 274.117C553.475 274.201 552.967 275.119 553.517 276.871ZM572.708 284.672C573.407 285.468 573.827 286.769 575.518 286.447C575.099 284.811 573.771 284.909 572.708 284.672ZM609.429 309.527C609.848 307.318 609.009 306.759 607.234 307.024C607.863 307.751 608.506 308.478 609.429 309.527ZM483.668 119.857C484.442 121.703 485.332 122.262 486.338 121.535C485.402 120.948 484.535 120.403 483.668 119.857ZM227.101 116.111C226.71 118.585 227.982 119.172 229.282 119.788C228.667 118.739 228.038 117.705 227.101 116.111ZM105.744 272.174C105.8 274.201 106.974 275.124 108.036 276.116C107.519 274.83 107.659 273.181 105.744 272.174ZM115.011 342.14C115.095 341.022 115.165 340.211 115.235 339.4C113.921 340.155 113.18 340.952 115.011 342.14ZM600.692 293.758C600.623 293.954 600.553 294.15 600.483 294.345C601.797 294.821 603.125 295.31 604.439 295.785C604.508 295.589 604.578 295.394 604.648 295.198C603.334 294.723 602.006 294.233 600.692 293.758ZM117.402 287.3C117.513 287.3 117.611 287.3 117.723 287.3L117.723 283.022C117.611 283.022 117.513 283.022 117.402 283.022L117.402 287.3ZM221.72 114.643C221.412 117.076 222.558 117.397 223.97 117.481C223.341 116.684 222.698 115.873 221.72 114.643ZM641.858 354.903C641.9 355.085 641.928 355.266 641.97 355.448C642.808 355.28 643.661 355.127 644.5 354.959C644.458 354.763 644.416 354.567 644.388 354.372L641.858 354.903ZM402.651 134.228C402.316 135.304 402.148 136.353 403.127 137.485C403.993 136.031 403.001 135.192 402.651 134.228ZM374.863 574.208C374.807 574.012 374.751 573.831 374.695 573.635C374.15 573.733 373.577 573.775 373.046 573.928C372.501 574.096 371.984 574.362 371.467 574.586C371.508 574.711 371.55 574.837 371.578 574.963C372.669 574.711 373.759 574.46 374.863 574.194L374.863 574.208ZM346.04 98.8188C346.222 98.5112 346.404 98.2176 346.586 97.9101L344.391 96.8757C344.293 97.0713 344.195 97.2531 344.083 97.4488L346.04 98.8188ZM450.289 146.292C450.163 146.012 450.051 145.719 449.925 145.439C449.045 145.901 448.15 146.362 447.269 146.837L447.521 147.382C448.444 147.019 449.352 146.669 450.275 146.306L450.289 146.292ZM555.208 297.393L554.579 297.505C554.649 297.966 554.649 298.427 554.789 298.861C554.942 299.322 555.208 299.741 555.431 300.175C555.585 300.119 555.725 300.063 555.879 300.007C555.655 299.14 555.431 298.259 555.208 297.393ZM577.167 293.506C576.986 293.618 576.804 293.73 576.636 293.842C577.083 294.709 576.664 296.009 578.467 296.54C577.95 295.338 577.559 294.429 577.167 293.506ZM591.299 282.631C591.299 282.393 591.327 282.169 591.327 281.932L587.497 281.722C587.497 281.96 587.483 282.197 587.469 282.421C588.741 282.491 590.027 282.561 591.299 282.631ZM572.205 281.47C573.295 282.058 574.432 282.058 575.616 281.47L572.205 281.47ZM164.941 114.559C165.901 114.82 166.837 114.559 167.75 113.776C166.646 114.084 165.794 114.322 164.941 114.559ZM93.4991 277.403C94.6453 277.976 95.3861 278.353 96.127 278.731C95.8753 277.431 95.5679 276.298 93.4991 277.403ZM97.427 273.726C97.5108 273.446 97.5947 273.167 97.6786 272.873C97.0356 272.706 96.4066 272.538 95.7636 272.384C95.7077 272.594 95.6378 272.803 95.5818 273.013C96.1969 273.251 96.8119 273.488 97.427 273.726ZM174.208 528.021L174.837 528.315C175.103 527.811 175.355 527.308 175.62 526.819C175.369 526.721 174.907 526.497 174.893 526.525C174.628 527 174.418 527.518 174.208 528.021ZM122.056 299.14C122.909 298.665 123.468 298.357 124.041 298.05C122.979 297.463 122.098 297.225 122.056 299.14ZM88.9703 264.891L88.5788 265.548C89.4035 265.968 90.2283 266.387 91.053 266.806C91.1508 266.625 91.2347 266.443 91.3325 266.261C90.5497 265.8 89.753 265.339 88.9703 264.877L88.9703 264.891ZM145.483 464.961C145.386 464.751 145.288 464.528 145.19 464.318C144.253 464.234 143.61 464.653 143.513 466.009C144.17 465.66 144.826 465.31 145.483 464.961ZM98.9785 287.985C98.685 287.985 98.3775 287.971 98.084 287.957C98.1678 288.684 98.2656 289.425 98.3495 290.152C98.5591 290.124 98.7688 290.11 98.9785 290.082L98.9785 287.985ZM250.724 140.043C250.487 140.057 250.249 140.071 249.997 140.085C250.095 141.008 250.179 141.93 250.277 142.853C250.431 142.839 250.57 142.825 250.724 142.811L250.724 140.043ZM147.343 260.46C146.467 261.513 146.178 262.678 146.476 263.955C146.769 262.766 146.979 261.914 147.343 260.46ZM221.901 125.295C221.957 125.044 222.027 124.806 222.083 124.554C221.147 124.345 220.196 124.121 219.26 123.911C219.218 124.093 219.162 124.275 219.12 124.457L221.901 125.295ZM139.99 306.395C140.689 305.631 140.717 304.96 140.074 304.382C140.032 305.165 140.018 305.78 139.99 306.395ZM609.079 305.249C609.023 304.326 608.981 303.697 608.925 302.761C608.269 303.25 607.849 303.558 607.22 304.033C607.919 304.494 608.366 304.788 609.079 305.263L609.079 305.249ZM393.971 105.906C392.448 106.368 392.797 107.094 393.454 107.849C393.524 107.933 393.761 107.877 394.069 107.891C394.041 107.234 394.013 106.605 393.985 105.906L393.971 105.906ZM202.975 142.574C203.045 143.776 203.073 144.377 203.143 145.453C204.359 144.293 204.331 143.692 202.975 142.574ZM243.092 143.748C243.651 144.642 244.28 145.16 245.273 143.902C244.308 143.832 243.693 143.79 243.092 143.748ZM371.243 140.197C370.013 140.099 369.342 140.043 368.685 139.987C369.258 140.742 369.747 141.693 371.243 140.197ZM227.549 112.91C227.758 112.91 227.982 112.896 228.192 112.882L227.996 109.792C227.842 109.792 227.702 109.792 227.549 109.806L227.549 112.91ZM428.553 552.233C428.553 552.233 428.455 552.303 428.413 552.331L428.413 554.204C428.413 554.204 428.511 554.204 428.553 554.204L428.553 552.233ZM243.637 141.371C243.861 141.274 244.099 141.176 244.322 141.092C244.071 140.491 243.819 139.89 243.553 139.302C243.33 139.4 243.106 139.484 242.882 139.582C243.134 140.183 243.372 140.784 243.623 141.385L243.637 141.371ZM364.03 124.834C364.086 123.799 364.114 123.296 364.156 122.807C363.723 122.835 363.275 122.849 362.479 122.891C363.024 123.576 363.345 123.981 364.044 124.834L364.03 124.834ZM354.525 618.117C354.721 617.963 354.916 617.809 355.126 617.669C354.791 617.264 354.441 616.872 354.106 616.467L353.714 616.761C353.994 617.222 354.26 617.669 354.539 618.131L354.525 618.117ZM147.552 259.146C147.608 258.95 147.664 258.754 147.72 258.545C147.161 258.363 146.602 258.195 146.043 258.013C145.973 258.279 145.903 258.545 145.847 258.824C146.42 258.936 146.993 259.034 147.566 259.146L147.552 259.146ZM600.161 309.275C600.063 309.387 599.952 309.513 599.854 309.624C600.231 310.044 600.595 310.463 600.972 310.897C601.084 310.785 601.196 310.687 601.307 310.575C600.93 310.142 600.553 309.708 600.161 309.275ZM135.21 312.085C134.413 312.602 133.952 312.896 133.113 313.427C134.623 313.888 135 313.483 135.21 312.085ZM107.449 336.451C107.617 336.283 107.701 336.227 107.743 336.143C107.771 336.087 107.757 335.947 107.729 335.919C107.072 335.598 106.401 335.29 105.73 334.969C105.66 335.137 105.59 335.304 105.52 335.458C106.177 335.794 106.834 336.115 107.449 336.437L107.449 336.451ZM575.756 289.075C575.532 289.131 575.308 289.187 575.085 289.243C575.322 289.872 575.56 290.501 575.798 291.13C575.923 291.088 576.049 291.06 576.175 291.018C576.035 290.361 575.895 289.718 575.756 289.061L575.756 289.075ZM140.941 271.35C140.731 271.294 140.521 271.252 140.312 271.196C140.186 271.825 140.06 272.44 139.934 273.069C140.088 273.111 140.256 273.139 140.409 273.181C140.577 272.566 140.759 271.965 140.927 271.35L140.941 271.35ZM343.888 672.649L344.321 672.999C344.741 672.551 345.146 672.104 345.565 671.657C345.467 671.573 345.383 671.475 345.286 671.391C344.824 671.811 344.363 672.23 343.888 672.649ZM348.836 568.435C348.948 568.616 349.074 568.798 349.186 568.98C349.633 568.686 350.094 568.379 350.541 568.085C350.43 567.917 350.332 567.764 350.22 567.596C349.759 567.876 349.297 568.155 348.836 568.435ZM234.733 138.254C234.733 138.058 234.705 137.849 234.691 137.653C233.978 137.709 233.252 137.765 232.539 137.807C232.539 137.918 232.539 138.03 232.539 138.142C233.266 138.184 234.006 138.212 234.733 138.254Z" fill="#B7B597"/>
</svg>
