<svg width="81" height="97" viewBox="0 0 81 97" fill="none" xmlns="http://www.w3.org/2000/svg">
<g clip-path="url(#clip0_1_352)">
<path d="M80.38 45.11C80.38 44.45 77.62 43.88 73.75 43.66C76.68 40.44 78.49 37.81 78.01 37.33C77.53 36.85 74.89 38.67 71.67 41.6C71.44 38.11 70.89 35.63 70.24 35.63C69.59 35.63 69.03 38.11 68.81 41.61C65.76 38.86 63.28 37.19 62.8 37.66C62.32 38.14 64 40.61 66.74 43.65C62.87 43.87 60.1 44.43 60.1 45.1C60.1 45.76 62.86 46.33 66.73 46.55C63.8 49.77 61.99 52.4 62.47 52.88C62.95 53.36 65.59 51.54 68.81 48.61C69.04 52.1 69.59 54.58 70.24 54.58C70.89 54.58 71.45 52.1 71.67 48.6C74.72 51.35 77.2 53.02 77.68 52.55C78.16 52.08 76.48 49.6 73.75 46.56C77.61 46.34 80.38 45.78 80.38 45.11Z" fill="#E6007D"/>
<path d="M16.67 39.0499C16.67 38.5899 14.74 38.1899 12.04 38.0399C14.09 35.7899 15.35 33.9599 15.02 33.6199C14.69 33.2799 12.85 34.5499 10.59 36.5999C10.43 34.1599 10.04 32.4399 9.59001 32.4399C9.14001 32.4399 8.75001 34.1699 8.59001 36.6099C6.46001 34.6899 4.73001 33.5199 4.40001 33.8499C4.07001 34.1799 5.23001 35.9099 7.15001 38.0299C4.45001 38.1799 2.51001 38.5799 2.51001 39.0399C2.51001 39.4999 4.44001 39.8999 7.14001 40.0499C5.09001 42.2999 3.83001 44.1299 4.16001 44.4699C4.50001 44.8099 6.33001 43.5399 8.59001 41.4899C8.75001 43.9299 9.14001 45.6499 9.59001 45.6499C10.04 45.6499 10.43 43.9199 10.59 41.4799C12.72 43.3999 14.45 44.5699 14.78 44.2399C15.11 43.9099 13.95 42.1799 12.03 40.0599C14.73 39.9099 16.67 39.5099 16.67 39.0499Z" fill="#205B5B"/>
<path d="M9.58 68.84C9.58 68.53 8.27 68.26 6.45 68.16C7.84 66.64 8.69001 65.4 8.46001 65.17C8.23001 64.94 6.99001 65.8 5.46001 67.19C5.35001 65.54 5.09001 64.37 4.78001 64.37C4.47001 64.37 4.21001 65.54 4.10001 67.19C2.66001 65.89 1.49 65.1 1.26 65.33C1.04 65.55 1.82 66.73 3.12 68.16C1.29 68.26 -0.0199966 68.53 -0.0199966 68.84C-0.0199966 69.15 1.29001 69.42 3.11001 69.52C1.72001 71.04 0.870007 72.28 1.10001 72.51C1.33001 72.74 2.57001 71.88 4.10001 70.49C4.21001 72.14 4.47001 73.31 4.78001 73.31C5.09001 73.31 5.35001 72.14 5.46001 70.49C6.90001 71.79 8.07 72.58 8.3 72.35C8.53 72.12 7.74 70.95 6.44 69.52C8.27 69.42 9.58 69.15 9.58 68.84Z" fill="#E6007D"/>
<path d="M62.85 12.56C63.14 12.08 63.31 11.53 63.29 10.94C63.22 8.85998 61.58 7.48998 59.52 7.90998C57.84 8.25998 56.75 9.52998 56.89 11.29C56.99 12.5 57.87 13.59 59.01 14.01C60.48 14.55 62.09 13.8 62.85 12.56Z" fill="#205B5B"/>
<path d="M27.08 20.73L13.4 93.67C13.4 93.67 47.19 106.51 72.28 80.82L27.08 20.73Z" fill="#E6007D"/>
<path d="M27.08 20.73L29.52 0L36.39 2.14L27.08 20.73Z" fill="#29B4B8"/>
<path d="M27.08 20.73L23.07 1.30005L15.65 4.80005L27.08 20.73Z" fill="#51457D"/>
<path d="M27.08 20.7301L11.87 11.5601L10.43 17.8001L27.08 20.7301Z" fill="#51457D"/>
<path d="M27.08 20.73L38.07 10.36L42.04 14.74L27.08 20.73Z" fill="#51457D"/>
<path d="M27.08 20.73L12.36 24.33L15.78 29.75L27.08 20.73Z" fill="#29B4B8"/>
<path d="M40.88 96.41C43.37 96.1 45.93 95.61 48.54 94.9C55.42 88.47 61.51 81.22 66.65 73.33L64.13 69.98C57.82 79.93 49.97 88.87 40.88 96.41Z" fill="#29B4B8"/>
<path d="M57.82 61.6L55.27 58.21C46.62 73.1 34.58 85.94 20.12 95.5C21.75 95.84 23.64 96.16 25.72 96.41C38.7 87.15 49.64 75.22 57.82 61.6Z" fill="#29B4B8"/>
<path d="M48.89 49.72L46.28 46.26C38.76 60.49 28.21 73.02 15.42 82.85L14.36 88.53C28.64 78.39 40.48 65.03 48.89 49.73V49.72Z" fill="#29B4B8"/>
<path d="M37.19 34.17C32.61 43.76 26.67 52.65 19.61 60.56L18.27 67.72C26.99 58.94 34.3 48.78 39.84 37.69L37.19 34.17Z" fill="#29B4B8"/>
<path d="M27.95 21.89C27.35 23.29 26.73 24.68 26.08 26.06L23.73 38.59C26.32 34.38 28.63 30.01 30.67 25.5L27.96 21.89H27.95Z" fill="#29B4B8"/>
<g style="mix-blend-mode:multiply" opacity="0.18">
<path d="M57.29 88.23C49.37 89.5 40.45 87.86 35.14 81.86C30.09 76.16 29.33 67.96 28.81 60.37C28.2 51.45 27.58 42.53 26.97 33.61C26.8 31.12 26.61 28.59 26.06 26.16L13.4 93.66C13.4 93.66 42.74 104.8 67.04 85.54C63.87 86.72 60.64 87.69 57.29 88.23Z" fill="#601442"/>
</g>
</g>
<defs>
<clipPath id="clip0_1_352">
<rect width="80.38" height="96.87" fill="white" transform="matrix(-1 0 0 1 80.38 0)"/>
</clipPath>
</defs>
</svg>
