<svg width="93" height="118" viewBox="0 0 93 118" fill="none" xmlns="http://www.w3.org/2000/svg">
<path d="M87.5685 54.1406C84.9128 48.7966 80.3447 44.4689 75.0553 41.5291C69.7659 38.5893 63.788 36.9719 57.7555 36.2506C48.9143 35.1905 39.7671 36.0211 31.5161 39.2997C23.265 42.5782 15.9866 48.3922 11.6152 55.9766C7.24381 63.561 5.9761 72.9267 8.79565 81.1887" fill="#721852"/>
<path d="M6.22746 72.8705C3.83411 75.2857 4.51168 79.4058 6.11817 81.9521C8.55524 85.799 9.97594 90.4217 12.2819 94.3997C15.3965 99.7656 18.4783 105.241 21.746 110.508C23.0792 112.661 24.5109 115.973 27.0026 116.945C29.8003 118.049 33.6143 117.721 36.4558 117.076C50.2913 113.962 63.9629 109.896 77.7656 106.443C82.6616 105.219 88.0603 103.634 90.6175 99.2957C92.4645 96.1811 92.3989 92.3452 92.2787 88.7387C91.9617 79.2856 91.6448 69.8215 91.3279 60.3683C91.2405 57.7127 91.0437 54.7838 89.175 52.8823C87.1641 50.8386 83.7435 50.7621 81.1644 52.008C78.5852 53.2538 76.6946 55.5707 75.0772 57.9422C74.3887 53.4396 70.1593 50.7621 65.8207 51.2976C61.4384 51.8331 57.6134 55.4614 56.8484 59.8109C54.2583 55.5597 48.6411 53.4287 43.8872 54.8822C38.6961 56.4668 35.964 60.5432 36.423 65.9091C33.9968 61.6579 27.9752 59.953 23.6803 62.3026C19.3854 64.6523 17.5822 70.652 19.8553 74.9797C18.0521 73.1547 15.8664 71.6247 13.3638 71.0673C10.8612 70.51 8.03066 71.0455 6.22746 72.8705Z" fill="#F9A100"/>
<g style="mix-blend-mode:multiply" opacity="0.3">
<path d="M19.7133 96.8145C29.9752 95.4702 40.4775 96.2352 50.6519 94.3228C60.8264 92.4103 71.2303 87.0225 75.2193 77.471C77.1755 72.7826 77.405 67.5916 77.8421 62.5317C78.1153 59.3515 78.5197 56.0948 79.4705 53.0676C80.006 52.6741 80.5633 52.3135 81.1753 52.0184C83.7544 50.7617 87.1641 50.8491 89.1859 52.8927C91.0547 54.7834 91.2514 57.7122 91.3388 60.3788C91.6558 69.8319 91.9727 79.296 92.2896 88.7492C92.4098 92.3556 92.4754 96.1915 90.6394 99.2952C88.0712 103.634 82.6725 105.218 77.7875 106.442C63.9847 109.896 50.3132 113.961 36.4776 117.076C33.6362 117.71 29.8222 118.038 27.0245 116.945C24.5328 115.972 23.1011 112.661 21.7678 110.508C19.1887 106.355 16.7298 102.071 14.2709 97.809C16.085 97.3937 17.9101 97.0658 19.7242 96.8254L19.7133 96.8145Z" fill="#F9A100"/>
</g>
<path d="M18.6969 73.9095C19.1012 74.2482 19.4837 74.6089 19.8553 74.9805C19.3854 74.0843 19.1012 73.1117 18.9592 72.1172C21.7896 77.6361 25.2649 84.7943 28.9697 92.6519C32.8821 100.947 36.4448 108.487 39.7671 115.525C39.8764 115.766 39.9856 115.984 40.0949 116.225C39.7999 116.29 39.5048 116.367 39.2097 116.432C39.1223 116.268 39.0349 116.104 38.9474 115.941C35.9421 110.192 32.0187 102.149 27.8003 93.2092C24.5436 86.3024 21.5274 79.9202 18.6969 73.9204V73.9095Z" fill="#FFC41F"/>
<path d="M36.4338 65.9193C36.3683 65.1543 36.3792 64.4221 36.4338 63.7227C38.8053 69.7989 41.767 78.0609 44.8379 87.2299C48.029 96.7487 50.7939 105.404 52.7829 111.677C52.9141 112.103 53.0452 112.519 53.1763 112.934C52.9031 113.01 52.619 113.087 52.3458 113.152C52.2037 112.77 52.0616 112.366 51.9196 111.961C49.7011 105.765 46.7941 97.153 43.6139 87.6343C40.7288 79.0117 38.0513 71.1759 35.953 65.1652C36.1278 65.4056 36.2918 65.657 36.4338 65.9084V65.9193Z" fill="#FFC41F"/>
<path d="M65.6676 109.591C65.3726 109.667 65.0775 109.744 64.7824 109.831C63.6349 103.547 62.1487 94.8372 60.575 85.1873C58.9138 74.98 57.4931 65.7891 56.586 59.4069C56.6735 59.538 56.7718 59.6692 56.8593 59.8112C56.9467 59.2867 57.0888 58.773 57.2636 58.2812C58.4439 64.6307 60.105 74.226 61.8536 84.9796C63.4164 94.5749 64.7606 103.274 65.6786 109.591H65.6676Z" fill="#FFC41F"/>
<path d="M79.6999 105.93C79.3939 106.017 79.0879 106.093 78.7819 106.17C78.1481 99.9407 77.3612 91.4383 76.5744 82.0507C75.7219 71.8325 75.0334 62.6417 74.6291 56.2812C74.8367 56.8058 74.9788 57.3522 75.0772 57.9424C75.252 57.691 75.4269 57.4506 75.6017 57.1992C76.2465 63.4722 77.0552 72.2369 77.8749 81.9414C78.6508 91.2525 79.2956 99.7003 79.6999 105.93Z" fill="#FFC41F"/>
<path d="M57.8267 75.0848C57.3038 72.2414 58.1696 69.6992 59.7604 69.4067C61.3513 69.1141 63.0649 71.182 63.5878 74.0254C64.1106 76.8688 63.2449 79.411 61.654 79.7035C60.0631 79.9961 58.3496 77.9282 57.8267 75.0848Z" fill="#721852"/>
<path d="M37.4507 78.8309C36.9279 75.9875 37.7936 73.4453 39.3845 73.1528C40.9754 72.8602 42.6889 74.9281 43.2118 77.7715C43.7347 80.6149 42.8689 83.1571 41.2781 83.4496C39.6872 83.7422 37.9736 81.6743 37.4507 78.8309Z" fill="#721852"/>
<path d="M72.356 73.4779C73.4817 85.4228 65.0339 96.0344 53.1874 97.6737C41.8327 99.2474 31.2757 91.3242 28.8277 80.2973C28.478 78.7346 30.8823 78.0679 31.232 79.6307C33.4942 89.8052 42.9583 96.5918 53.3404 95.1601C63.7225 93.7285 70.837 83.8054 69.8643 73.4779C69.7113 71.8714 72.214 71.8933 72.356 73.4779Z" fill="#721852"/>
<path d="M2.7741 59.1563C3.81231 64.8501 10.0306 66.3473 14.9703 64.9266C18.5986 63.8884 21.7351 61.648 24.959 59.6918C35.2755 53.4298 47.133 49.725 59.1762 49.0256C63.482 48.7742 67.9299 48.8835 71.9407 47.2989C78.2246 44.8181 81.077 37.9659 77.1099 32.1629C74.651 28.5565 70.0173 26.5675 65.7005 27.2669C66.8917 23.8353 65.1104 19.8574 62.1597 17.7482C59.209 15.639 55.3512 15.1362 51.7339 15.5078C48.1165 15.8794 44.6413 17.0378 41.1332 17.9886C37.6252 18.9394 33.975 19.6825 30.3795 19.1907C25.3415 18.5022 20.7187 15.2565 18.3691 10.7539C19.5166 13.5516 18.5112 16.8739 16.6205 19.2454C14.7299 21.6169 12.0852 23.2343 9.50607 24.8189C6.92693 26.4036 4.29316 28.0756 2.47903 30.4908C0.249603 33.4524 -0.548172 37.4523 0.380753 41.0478C1.30968 44.6433 3.93252 47.7579 7.32036 49.277C3.97623 51.2222 2.07468 55.3532 2.7741 59.1563Z" fill="#ED6CAE"/>
<path d="M13.6261 22.0875C13.9649 21.8361 14.2928 21.5629 14.6097 21.2897C16.1615 21.8033 17.7789 22.3826 19.4838 22.8962C23.123 23.9781 27.3305 24.459 31.68 23.9563C36.0296 23.4535 40.0294 22.0656 43.3298 20.175C46.0838 18.6122 48.499 16.962 50.7285 15.6287C51.0672 15.585 51.3951 15.5304 51.7339 15.4976C52.1382 15.4539 52.5317 15.432 52.936 15.4102C52.8049 15.4867 52.6847 15.5413 52.5535 15.6178C50.0618 17.0931 47.2969 19.2024 43.9091 21.2023C40.5321 23.224 36.3465 24.7103 31.8112 25.2349C27.2758 25.7485 22.8716 25.213 19.1122 24.0218C17.1232 23.377 15.2982 22.6776 13.6043 22.0656L13.6261 22.0875Z" fill="#BF4388"/>
<path d="M1.87794 31.3975C2.69758 32.3155 3.67022 33.2226 4.82864 34.0641C8.10719 36.4793 12.8065 38.2388 18.2051 38.7524C23.6038 39.3426 29.6255 38.7196 35.7126 37.1241C41.8217 35.5504 47.3843 33.2335 52.4442 31.0697C57.3183 28.9823 61.8755 27.2665 65.9191 26.4688C65.8644 26.742 65.7879 27.0152 65.7005 27.2775C66.1704 27.201 66.6404 27.1682 67.1103 27.1572C66.9245 27.201 66.7387 27.2228 66.5529 27.2665C62.5203 28.1299 57.9303 29.944 52.9141 32.1625C47.887 34.3919 42.2479 36.7743 36.0405 38.3808C29.844 40.0092 23.6366 40.6212 18.074 39.9436C12.5223 39.3426 7.63727 37.4191 4.28221 34.7963C3.17843 33.9439 2.26044 33.0368 1.47358 32.1188C1.60472 31.8784 1.73587 31.627 1.87794 31.3975Z" fill="#BF4388"/>
<path d="M13.1234 50.6983C10.9049 50.4906 8.82846 50.0863 6.89412 49.5726C7.03619 49.4743 7.16733 49.365 7.32033 49.2776C6.52254 48.9169 5.76848 48.4688 5.06905 47.9443C7.52797 48.6874 10.271 49.2776 13.2327 49.518C18.1396 49.9879 23.6257 49.4196 28.9916 47.5509C34.3684 45.6602 39.166 42.9499 43.7123 40.8189C48.2367 38.6332 52.5754 37.0813 56.3566 36.4365C60.1379 35.748 63.3072 35.9666 65.3945 36.3928C66.4436 36.6114 67.2414 36.8409 67.766 37.0595C68.2906 37.2671 68.5529 37.3873 68.5419 37.431C68.5091 37.5403 67.3835 37.1688 65.318 36.8955C63.2525 36.6223 60.1925 36.5568 56.5315 37.3436C52.8704 38.0867 48.6848 39.6823 44.226 41.9008C39.7453 44.0647 34.9476 46.8405 29.4069 48.7858C23.8661 50.7201 18.1505 51.2666 13.1124 50.7201L13.1234 50.6983Z" fill="#BF4388"/>
<g style="mix-blend-mode:overlay" opacity="0.26">
<path d="M37.0569 42.2226C40.5977 40.3866 74.1592 24.9992 70.4654 38.0042C69.7004 40.7035 66.9355 42.4193 64.1815 42.9766C61.4275 43.534 58.5861 43.2061 55.7774 43.2499C49.9853 43.3373 44.226 45.0749 39.3519 48.2114C36.5214 50.0255 33.2647 52.4189 30.1391 51.184C29.7129 49.195 30.62 47.1076 32.0188 45.6213C33.4177 44.1351 35.2537 43.1624 37.0569 42.2226Z" fill="white"/>
</g>
<path d="M33.1663 14.2287C37.3629 5.95577 50.5317 6.06506 54.1054 14.8079C56.0397 19.5399 54.3895 25.496 50.2804 28.5341C46.1713 31.5722 39.9857 31.4192 36.0514 28.1407C32.1281 24.8621 30.8604 18.7859 33.1663 14.2287Z" fill="#E6007D"/>
<g style="mix-blend-mode:overlay" opacity="0.26">
<path d="M6.92692 33.911C7.97606 23.6054 21.3307 24.5343 27.5928 28.3593C30.5872 30.1953 33.7455 32.1187 37.2645 32.2061C38.1825 32.228 39.177 32.1406 39.9311 32.6651C40.9474 33.3755 41.0348 34.9273 40.4447 36.0202C39.8546 37.113 38.7836 37.8343 37.7454 38.5228C34.0952 40.9162 30.3577 43.2876 26.2048 44.6319C22.052 45.9761 17.3746 46.1946 13.4185 44.3368C9.46234 42.4789 6.48978 38.2496 6.92692 33.911Z" fill="white"/>
</g>
<path d="M37.7453 10.8409C37.8874 10.7098 38.4666 11.1688 39.4502 11.7371C40.4228 12.3163 41.8544 12.9501 43.5374 13.2452C45.2204 13.5293 46.7832 13.4201 47.8979 13.2124C49.0126 13.0048 49.712 12.7753 49.8104 12.9501C49.8869 13.0922 49.3186 13.6277 48.1493 14.0976C46.9908 14.5676 45.2204 14.8517 43.3189 14.5238C41.4173 14.1851 39.8436 13.3108 38.9147 12.4802C37.9748 11.6496 37.6251 10.9393 37.7453 10.8409Z" fill="#91145F"/>
<path d="M41.8872 0.011462C42.0183 -0.0868947 42.6522 0.448603 43.3626 1.58517C44.0729 2.71081 44.7942 4.45937 45.0346 6.50301C45.275 8.54664 44.98 10.4154 44.5428 11.6722C44.1166 12.9399 43.6139 13.6065 43.4609 13.541C43.1003 13.3989 44.215 10.4045 43.7451 6.656C43.3407 2.89659 41.5594 0.240961 41.8763 0.0223906L41.8872 0.011462Z" fill="#91145F"/>
<g style="mix-blend-mode:multiply" opacity="0.25">
<path d="M36.0514 28.1386C34.0187 26.4447 32.7073 24.0077 32.2265 21.4067C33.3084 21.4067 34.3903 21.4832 35.4613 21.6471C38.3574 22.1061 41.2971 23.188 44.1495 22.4995C48.0619 21.5597 50.5427 17.4396 50.8705 13.4179C50.947 12.4453 50.9252 11.4726 50.8268 10.5C52.2147 11.571 53.3732 12.9917 54.1054 14.7949C56.0397 19.527 54.3895 25.483 50.2804 28.5211C46.1713 31.5702 39.9857 31.4063 36.0514 28.1277V28.1386Z" fill="#91145F"/>
</g>
</svg>
