<svg width="88" height="102" viewBox="0 0 88 102" fill="none" xmlns="http://www.w3.org/2000/svg">
<path d="M48.6049 20.3691L87.0643 32.6079L75.8838 48.8558L48.6049 20.3691Z" fill="#ED6CAE"/>
<path d="M49.962 16.1108L81.997 3.52344L84.5742 18.6632L49.962 16.1108Z" fill="#F9A100"/>
<path d="M47.9824 26.5449L64.5166 54.9569L48.8041 58.4056L47.9824 26.5449Z" fill="#F9A100"/>
<path d="M37.4619 52.6293C36.0176 62.2161 34.4987 71.803 32.9299 81.3774C31.6226 89.3332 32.1829 100.265 21.9486 101.485C17.1303 102.058 12.0754 101.024 7.73018 98.92C4.25651 97.2392 1.1688 94.5499 0.185215 90.6778C-0.362606 88.5364 0.446671 86.9303 0.795284 84.8261C1.2684 81.9501 1.69172 79.074 2.15239 76.198C4.01995 64.7062 6.08673 53.2393 8.36516 41.8223" fill="#209191"/>
<path d="M5.36447 57.5586C13.8432 64.0951 23.8285 68.8387 34.4238 72.0883C34.2246 73.3458 34.013 74.6157 33.8138 75.8732C23.2433 72.6734 13.2456 68.0543 4.61744 61.7544C4.86645 60.3599 5.11546 58.9655 5.36447 57.5586Z" fill="#F9A100"/>
<path d="M2.9615 71.3789C11.8511 77.0937 22.0107 81.1276 32.5936 83.792C32.4317 85.0371 32.2948 86.3194 32.1205 87.6018C21.5127 84.9624 11.3158 80.9907 2.27673 75.4502C2.50084 74.0931 2.72494 72.736 2.9615 71.3789Z" fill="#F9A100"/>
<path d="M0.80752 84.7129C9.8839 89.5935 19.9937 92.9551 30.3524 95.0841C29.8046 96.379 29.095 97.5493 28.1736 98.5329C18.3378 96.379 8.75091 93.1543 0.0355892 88.6099C0.147642 87.3648 0.570959 86.207 0.795067 84.8249C0.795067 84.7876 0.795071 84.7502 0.80752 84.7129Z" fill="#F9A100"/>
<g style="mix-blend-mode:color-burn" opacity="0.26">
<path d="M0.185215 90.6893C0.110512 90.4154 0.0731544 90.1415 0.0358047 89.88C0.757931 89.9921 1.46761 90.1042 2.18974 90.1913C6.03693 90.6769 10.1705 90.764 13.5321 88.8467C17.84 86.4064 19.8445 81.3888 21.5502 76.7448C24.1523 69.6481 26.7545 62.5638 29.3566 55.467C29.9791 53.7613 30.6266 52.0307 31.3736 50.3623L37.4619 52.6283C36.0176 62.2151 34.4987 71.802 32.9299 81.3764C31.6226 89.3322 32.1829 100.264 21.9486 101.484C17.1303 102.057 12.0754 101.023 7.73018 98.9191C4.25651 97.2383 1.1688 94.549 0.185215 90.6769V90.6893Z" fill="#209191"/>
</g>
<path d="M19.8319 15.2643C18.2009 18.7753 18.4125 22.9835 20.0435 26.4572C21.6745 29.9309 25.3972 31.288 27.2274 34.799C30.477 31.6491 35.3451 29.8064 37.0882 25.4612C38.7068 21.4148 38.2585 16.833 37.2003 12.6123C36.142 8.39161 34.511 4.29541 33.8137 0C30.1284 5.87661 22.7577 8.96433 19.8319 15.2518V15.2643Z" fill="#F9A100"/>
<g style="mix-blend-mode:overlay" opacity="0.35">
<path d="M27.5263 32.4957C26.4805 31.4499 26.9536 29.5947 27.9621 28.5115C28.9706 27.4284 30.3899 26.8307 31.5354 25.8969C33.9383 23.9422 34.9468 20.6678 34.9094 17.58C34.8721 14.4923 33.8885 11.4793 32.9298 8.54102C30.7634 9.63666 28.5846 10.7323 26.7046 12.2637C24.8246 13.7951 23.2434 15.7996 22.6706 18.1528C22.0979 20.4686 22.5461 22.9462 23.4675 25.1499C24.3888 27.3537 25.7583 29.3333 27.1279 31.288" fill="white"/>
</g>
<path d="M5.10297 42.4322C6.08656 39.4192 7.77982 36.2693 10.631 35.1861C13.644 34.0406 18.4001 34.8997 21.4006 35.6841C23.2931 36.1821 25.0237 37.2777 26.9411 37.5641C28.8584 37.8505 30.7758 37.7633 32.7181 38.1866C35.4447 38.7718 38.5324 38.7718 40.1261 41.3117C42.7531 45.5075 42.6162 51.7452 40.7611 56.1775C40.4498 56.9246 40.0514 57.684 39.3915 58.1447C38.7316 58.6054 37.7356 58.6925 37.1504 58.1198C36.3412 57.323 36.7769 55.804 36.0174 54.9574C35.3202 54.1606 33.9382 54.422 33.2285 55.2064C32.5189 55.9908 32.3197 57.0864 32.1578 58.1322C31.996 59.1781 31.859 60.2737 31.224 61.1079C30.1159 62.5771 27.7379 62.6767 26.2563 61.581C24.7747 60.4854 24.1522 58.4933 24.314 56.6506C24.4012 55.6546 24.7 54.671 24.6626 53.675C24.6253 52.6789 24.1895 51.5833 23.2557 51.2098C21.6621 50.5624 20.1929 52.3179 19.3961 53.8368C18.5993 55.3558 17.3044 57.1736 15.6361 56.7253C14.2043 56.3394 13.7809 54.559 13.5568 53.0898C13.3327 51.6207 12.7226 49.8402 11.241 49.6784C9.82169 49.529 8.77586 51.0479 7.3814 51.3841C3.44706 52.3303 3.85793 47.1883 4.40575 44.7978C4.58005 44.0508 4.79171 43.2415 5.06562 42.4322H5.10297Z" fill="#29B4B8"/>
<path d="M11.5149 37.4259C11.6892 37.264 12.8098 38.3721 14.8641 39.779C15.885 40.4887 17.155 41.2357 18.6241 41.933C20.1057 42.6053 21.7866 43.2403 23.6168 43.7009C25.447 44.1367 27.2274 44.3483 28.8584 44.4355C30.4894 44.4853 31.9586 44.4106 33.1912 44.2487C35.6564 43.9375 37.1629 43.4768 37.2376 43.7009C37.2998 43.8503 35.9054 44.6845 33.3655 45.2821C32.0955 45.5934 30.5517 45.7801 28.8211 45.805C27.0904 45.805 25.198 45.6058 23.2557 45.1452C21.3134 44.6596 19.5455 43.9499 18.0141 43.1655C16.4951 42.3438 15.2003 41.4723 14.2291 40.6132C12.2495 38.9199 11.3904 37.5379 11.5274 37.4259H11.5149Z" fill="#1E5E5E"/>
<path d="M23.3678 44.7104C23.2931 44.7477 23.2309 44.7602 23.1686 44.7975C23.0192 44.6855 22.8823 44.5734 22.7329 44.4738C23.3554 44.0256 24.3141 43.2287 25.0735 41.7596C25.6961 40.5644 26.1567 38.9831 26.2688 37.1903C26.3684 35.3974 26.082 33.368 25.7708 31.2141C25.4595 29.0477 25.1856 26.9187 25.3848 24.9141C25.584 22.9345 26.2065 21.1914 27.0407 19.9215C27.8749 18.6391 28.8834 17.8547 29.6429 17.4937C30.4148 17.1326 30.8879 17.1201 30.9128 17.1949C31.0373 17.419 29.2071 18.0041 27.9496 20.4444C27.3271 21.6397 26.8664 23.2209 26.7544 25.0137C26.6548 26.8066 26.9287 28.836 27.2399 30.99C27.5512 33.1563 27.8251 35.2854 27.6259 37.2899C27.4267 39.2695 26.8042 41.0126 25.97 42.2825C25.1358 43.5649 24.1273 44.3617 23.3678 44.7104Z" fill="#1E5E5E"/>
</svg>
