<svg width="106" height="190" viewBox="0 0 106 190" fill="none" xmlns="http://www.w3.org/2000/svg">
<path d="M49.7603 86.618C53.2903 94.128 51.2303 101.048 45.8303 106.958C42.1103 111.028 38.9103 114.518 37.5903 120.068C36.0703 126.428 38.5103 132.418 42.1703 137.488C47.2303 144.498 54.0403 151.118 50.9603 160.478C47.8703 169.868 30.3603 176.758 37.1103 188.298C37.6603 189.248 36.2003 190.098 35.6503 189.158C31.6203 182.258 36.0803 175.508 40.9503 170.488C45.1503 166.158 49.7603 162.218 50.1703 155.738C50.5603 149.538 45.1203 144.098 41.6703 139.598C36.3803 132.698 34.0503 125.348 36.7203 116.838C37.9603 112.868 40.7703 109.778 43.5903 106.848C48.9203 101.308 51.8203 94.958 48.3003 87.468C47.8403 86.488 49.3003 85.628 49.7603 86.608V86.618Z" fill="#601442"/>
<path d="M64.5103 121.828C59.6803 129.558 67.1503 136.578 69.8003 143.518C71.9303 149.098 71.9703 154.288 69.4803 159.768C63.8503 172.168 48.3803 169.348 38.4903 175.388C37.5503 175.958 36.7003 174.498 37.6303 173.928C42.7103 170.828 48.4403 170.048 54.1503 168.758C61.8203 167.028 67.3903 162.468 69.4603 154.758C72.7103 142.688 55.7403 132.628 63.0303 120.978C63.6103 120.058 65.0703 120.908 64.4903 121.838L64.5103 121.828Z" fill="#601442"/>
<path d="M36.3803 175.066C37.1603 171.706 37.7203 168.396 37.1903 164.946C36.9803 163.596 36.4303 162.336 35.8003 161.136C35.9003 161.316 32.9103 156.676 32.2003 158.866C30.5003 164.116 33.6403 170.466 37.3203 173.996C38.1103 174.756 36.9103 175.946 36.1203 175.196C33.0003 172.216 31.1303 168.586 30.4103 164.336C30.1203 162.646 29.5303 157.086 32.0303 156.396C34.5303 155.706 37.0603 159.546 37.8303 161.436C39.7403 166.056 39.1003 170.776 38.0003 175.516C37.7503 176.576 36.1203 176.126 36.3703 175.066H36.3803Z" fill="#601442"/>
<path d="M36.8903 174.796C41.1003 174.146 45.1403 174.456 49.1903 175.796C51.3703 176.516 54.6103 177.566 54.0503 180.346C53.5603 182.786 48.3503 182.726 46.7603 182.466C42.6103 181.786 39.4103 179.556 37.3003 175.926C36.7503 174.976 38.2103 174.126 38.7603 175.066C39.9103 177.036 41.3003 178.436 43.2603 179.606C44.7303 180.476 46.4503 180.756 48.1103 180.866L49.2403 180.836C51.0703 181.156 51.8403 180.426 51.5403 178.646C47.4403 176.126 41.9903 175.696 37.3403 176.416C36.2703 176.576 35.8103 174.946 36.8903 174.786V174.796Z" fill="#601442"/>
<path d="M67.3403 115.758C69.6503 117.898 71.4703 120.568 72.6103 123.498C73.0103 124.518 73.3203 125.688 72.8503 126.678C72.0703 128.318 69.5603 128.338 68.1803 127.168C66.8003 125.998 66.2603 124.138 65.8003 122.388C65.8303 124.088 65.8003 125.858 65.0003 127.348C64.2003 128.838 62.3703 129.928 60.7903 129.328C59.4503 128.818 58.7203 127.278 58.7303 125.848C58.7403 124.418 59.3103 123.048 59.8803 121.728C58.9503 122.908 57.9503 124.128 56.5703 124.718C55.1903 125.308 53.3003 124.998 52.6103 123.668C51.9503 122.398 52.6103 120.868 53.3703 119.658C55.2403 116.708 57.8103 114.198 60.8003 112.408" fill="#219E9E"/>
<path d="M104.78 69.129C102.21 55.979 89.2503 44.939 75.4503 45.949C69.2903 46.399 63.1103 48.409 57.9103 51.759C47.8903 58.219 44.2303 70.679 44.5703 82.049C44.7903 89.489 46.7603 96.789 50.1403 103.409C52.7903 108.599 57.9903 118.529 64.2603 119.649C66.2603 120.009 68.2803 119.259 70.1503 118.479C80.1803 114.249 89.6903 108.219 96.4203 99.669C103.16 91.119 106.87 79.819 104.78 69.129Z" fill="#29B4B8"/>
<path d="M74.6279 73.6395C75.2004 71.799 74.8309 70.0477 73.8026 69.7278C72.7742 69.4079 71.4764 70.6405 70.9039 72.481C70.3314 74.3215 70.7009 76.0728 71.7292 76.3927C72.7576 76.7126 74.0553 75.4799 74.6279 73.6395Z" fill="#205B5B"/>
<path d="M87.8078 77.741C88.3804 75.9005 88.0109 74.1492 86.9825 73.8293C85.9542 73.5094 84.6564 74.7421 84.0839 76.5826C83.5113 78.423 83.8808 80.1744 84.9092 80.4943C85.9375 80.8142 87.2353 79.5815 87.8078 77.741Z" fill="#205B5B"/>
<path d="M66.7603 71.7279C65.2903 78.7579 69.3903 85.3879 76.2603 87.3279C83.1303 89.2679 89.5903 85.0679 91.8303 78.8479C92.1903 77.8479 93.8003 78.2779 93.4303 79.2879C90.7903 86.6279 83.4203 90.6679 75.8203 88.9279C67.9503 87.1279 63.5703 78.8879 65.1603 71.2779C65.3803 70.2279 66.9803 70.6779 66.7603 71.7179V71.7279Z" fill="#205B5B"/>
<g style="mix-blend-mode:multiply" opacity="0.18">
<path d="M44.5703 82.0438C44.2303 70.6738 47.8903 58.2138 57.9103 51.7538C63.1003 48.4038 69.2903 46.3938 75.4503 45.9438C76.9903 45.8338 78.5203 45.8738 80.0203 46.0538C80.5903 47.9538 80.9103 49.9338 80.9403 51.9138C81.0403 57.7438 79.0303 63.4338 76.2503 68.5538C73.4703 73.6738 69.9303 78.3338 66.6803 83.1738C64.1503 86.9338 61.7103 91.1238 61.9503 95.6338C62.1803 99.9338 64.8603 103.764 68.0903 106.614C71.3203 109.464 75.1303 111.564 78.6103 114.104C78.6803 114.154 78.7403 114.204 78.8103 114.254C76.0003 115.834 73.1003 117.234 70.1503 118.484C68.2803 119.274 66.2603 120.014 64.2603 119.654C58.0003 118.524 52.8003 108.604 50.1403 103.414C46.7603 96.7938 44.7903 89.4938 44.5703 82.0538V82.0438Z" fill="#205B5B"/>
</g>
<g style="mix-blend-mode:overlay" opacity="0.42">
<path d="M85.6403 61.8973C88.5703 57.7273 93.5503 58.5973 96.1803 62.3573C98.2903 65.3773 99.1803 69.3173 99.7003 72.9173C100.6 79.0973 99.5803 85.5873 96.5103 91.0473C94.7103 94.2473 92.2003 97.1773 88.8903 98.7673C87.3303 99.5173 85.3603 99.9173 83.9703 98.8973C82.8503 98.0873 82.4403 96.5573 82.5503 95.1773C82.6603 93.7973 83.2203 92.4973 83.6803 91.1773C85.2503 86.6873 85.7603 81.8373 85.1503 77.1173C84.8203 74.5273 84.1603 71.9873 83.9803 69.3773C83.8003 66.7673 84.1503 64.0173 85.6503 61.8873L85.6403 61.8973Z" fill="white"/>
</g>
<path d="M52.1603 81.4384C54.8103 82.3984 57.1803 84.0884 58.9603 86.2784C59.4703 86.9084 59.9503 87.6784 59.7803 88.4684C59.5403 89.5184 58.2703 89.9684 57.1903 89.9884C54.7703 90.0184 52.3803 88.7184 51.1003 86.6684C51.8203 88.2684 52.5603 89.9784 52.3203 91.7184C52.0803 93.4584 50.4003 95.1184 48.7003 94.6584C47.5003 94.3384 46.7503 93.1184 46.4003 91.9184C46.0503 90.7184 45.9603 89.4484 45.4503 88.3084C44.8703 89.7584 44.2603 91.2584 43.1203 92.3384C41.9803 93.4184 40.1603 93.9284 38.8203 93.1184C37.2003 92.1384 37.0603 89.8584 37.3503 87.9884C37.8803 84.6084 39.2203 81.3484 41.2203 78.5684" fill="#C4127C"/>
<path d="M0.68029 26.909C3.77029 11.089 18.3703 -1.10103 34.6203 0.0789655C41.7403 0.598966 48.9003 2.92897 54.9103 6.79897C66.5103 14.279 70.7403 28.689 70.3403 41.849C70.0803 50.459 67.8103 58.909 63.9003 66.569C60.8303 72.579 54.8103 84.059 47.5603 85.369C45.2503 85.789 42.9103 84.919 40.7403 84.009C29.1303 79.119 18.1303 72.139 10.3303 62.249C2.53029 52.359 -1.74971 39.269 0.68029 26.909Z" fill="#E6007D"/>
<path d="M38.9168 35.3025C40.1086 34.9318 40.5375 32.9041 39.8748 30.7736C39.212 28.643 37.7085 27.2165 36.5167 27.5872C35.3249 27.958 34.896 29.9857 35.5588 32.1162C36.2215 34.2467 37.725 35.6733 38.9168 35.3025Z" fill="#601442"/>
<path d="M23.6731 40.0486C24.8649 39.6779 25.2938 37.6502 24.631 35.5197C23.9683 33.3891 22.4648 31.9626 21.273 32.3333C20.0812 32.7041 19.6523 34.7318 20.3151 36.8623C20.9778 38.9928 22.4813 40.4194 23.6731 40.0486Z" fill="#601442"/>
<path d="M46.5203 29.3948C48.4303 38.3648 43.3503 47.0148 34.6003 49.7048C25.8503 52.3948 16.7803 47.0048 13.8003 38.6548C13.3803 37.4848 15.2403 36.9848 15.6503 38.1448C18.2703 45.4948 25.7503 49.6548 33.3603 48.0348C41.5303 46.2948 46.3503 37.8648 44.6503 29.9048C44.3903 28.6948 46.2503 28.1848 46.5003 29.3948H46.5203Z" fill="#601442"/>
<g style="mix-blend-mode:multiply" opacity="0.18">
<path d="M47.5603 85.3722C45.2503 85.7922 42.9103 84.9222 40.7403 84.0122C34.8403 81.5222 29.0903 78.4922 23.8503 74.8222C32.4603 75.0522 41.1403 73.6222 47.3203 67.9122C55.4503 60.4022 56.5303 47.9222 55.1403 36.9422C53.7903 26.2822 50.6503 15.6422 51.7703 4.99219C52.8403 5.55219 53.8903 6.14219 54.9003 6.80219C66.5003 14.2822 70.7303 28.6922 70.3303 41.8522C70.0703 50.4622 67.8003 58.9122 63.8903 66.5722C60.8203 72.5822 54.8003 84.0622 47.5503 85.3722H47.5603Z" fill="#601442"/>
</g>
<g style="mix-blend-mode:overlay" opacity="0.42">
<path d="M10.8403 14.879C14.3403 9.73901 20.7003 8.94901 24.8003 14.159C27.8803 18.059 24.3203 22.229 21.9203 25.309C17.9403 30.429 15.4803 36.709 14.9203 43.169C14.7803 44.789 14.6103 46.689 13.2303 47.549C11.9703 48.329 10.2203 47.769 9.23028 46.659C8.24028 45.549 7.85028 44.049 7.55028 42.589C6.34028 36.659 6.26028 30.499 7.31028 24.539C7.91028 21.139 8.90028 17.749 10.8403 14.899V14.879Z" fill="white"/>
</g>
</svg>
